<svg xmlns="http://www.w3.org/2000/svg"  width="205" height="181"><g><path d="M7 52h189.68v108.4H7z" fill="#fff" fill-opacity="0"/><path d="M15 112.34h62.05v-4H15zM43.83 58.26L36.8 86.44c-.04.14-.08.43-.08.57 0 .3.23.43.7.43.95 0 2.27-1.65 2.93-2.64l.5.56c-1.4 2.12-3.9 4.95-6.1 4.95-1.52 0-1.9-1.08-1.9-1.93 0-.94.1-1.6.47-3h-.23c-3.5 4.37-6.33 4.94-8.07 4.94-3.44 0-4.15-3.48-4.15-5.98 0-4.85 4.86-15.36 12.1-15.36 2.7 0 3.78 1.22 3.83 2.35h.1l2.5-9.84c.05-.18.1-.37.1-.56 0-.6-.33-.94-1.56-.94-.42 0-.94.1-1.27.14l-.2-.7M36.1 73.7c0-2.22-.7-3.35-2.63-3.35-4.67 0-8.5 9.43-8.5 13.95 0 2.3 1.33 3.1 2.65 3.1 3.3 0 6.4-4.42 7.73-8.75.52-1.65.75-3.5.75-4.95M55.76 69.15h1.74c2.97 0 2.73-3.63 4.76-6.65 1.46-2.2 3.5-4.24 7.07-4.24 2.35 0 3.72 1.13 3.72 2.78 0 1.32-1 1.9-1.93 1.9-1.32 0-1.65-.53-1.65-1.2 0-.65.42-1.36.42-1.74 0-.23-.15-.37-.7-.37-2.37 0-4.2 2.54-5.2 6.22l-.9 3.3h3.78l-.57 1.8h-3.57L59 85.34c-.32 1.28-.7 3.07-1.4 4.8-1.56 3.93-4.1 8.4-8.25 8.4-2.27 0-3.4-1.13-3.4-2.54 0-1.12.66-2.3 2.03-2.3 1.27 0 1.74.85 1.74 1.55 0 .9-.75.95-.75 1.5 0 .3.28.44.7.44 3.07 0 4.48-7.46 5.2-10.15l4.1-16.1h-3.64M45.3 122.25l-7.02 28.18c-.05.14-.1.42-.1.57 0 .28.24.42.7.42.95 0 2.27-1.65 2.93-2.64l.53.57c-1.4 2.12-3.9 4.94-6.13 4.94-1.5 0-1.88-1.1-1.88-1.94 0-.94.1-1.6.47-3h-.25c-3.48 4.37-6.3 4.93-8.05 4.93-3.44 0-4.15-3.5-4.15-6 0-4.84 4.85-15.35 12.1-15.35 2.7 0 3.78 1.22 3.83 2.35h.1l2.5-9.85c.04-.18.08-.37.08-.56 0-.62-.33-.95-1.55-.95-.42 0-.93.1-1.26.14l-.2-.72m-.37 14.33c0-2.2-.7-3.34-2.64-3.34-4.66 0-8.48 9.43-8.48 13.95 0 2.32 1.32 3.12 2.64 3.12 3.3 0 6.4-4.43 7.72-8.77.52-1.65.75-3.48.75-4.94M59.9 140.16l2.13-3.25c1.22-1.88 2.87-3.95 5.23-3.95 1.5 0 2.3.56 2.3 1.55 0 .9-.6 1.98-1.83 1.98-1.04 0-1.27-.42-2.07-.42-1.42 0-1.93.75-2.6 1.8l-2.6 4c1.43 2.9 2.5 9.28 4.63 9.28.75 0 1.88-.66 2.87-2.7l.66.48c-.57.7-2.7 5.23-5.42 5.23-1.93 0-2.82-1.93-3.43-3.63l-1.9-5.32-2.96 4.62c-1.5 2.3-2.86 4.33-5.5 4.33-1.7 0-2.45-1.18-2.45-2.2 0-.77.6-1.76 1.8-1.76 1.2 0 1.03.94 2.2.94.57 0 1.8-.47 3.3-2.78l3.07-4.76-1.56-4.34c-.8-2.26-2.03-4.2-4.62-4.2-.6 0-1.32.1-1.8.3l-.13-.86 6.23-1.55c2.07 1.13 2.97 3.06 3.54 4.6M90.6 136.4l-.68-1.27c3.66-2.46 5.53-4.93 5.53-7.13 0-.47-.4-.87-.93-.87-.54 0-1.2.27-1.94.27-2.46 0-3.86-1.13-3.86-3.4s1.6-3.8 4-3.8c3 0 5.33 2.33 5.33 5.8 0 4-2.87 8.2-7.46 10.4M120.85 112.34h67.72v-4h-67.72zM149.68 59.6l-7.02 28.17c-.05.15-.1.43-.1.57 0 .28.24.42.7.42.95 0 2.27-1.65 2.93-2.64l.5.57c-1.4 2.1-3.9 4.94-6.1 4.94-1.52 0-1.9-1.1-1.9-1.93 0-.94.1-1.6.47-3h-.23c-3.5 4.37-6.32 4.94-8.06 4.94-3.44 0-4.15-3.5-4.15-6 0-4.84 4.85-15.35 12.1-15.35 2.7 0 3.78 1.22 3.83 2.35h.1l2.5-9.85c.04-.2.1-.38.1-.57 0-.6-.34-.94-1.57-.94-.43 0-.95.08-1.28.13l-.2-.7m-.37 14.32c0-2.2-.7-3.35-2.64-3.35-4.65 0-8.47 9.43-8.47 13.95 0 2.3 1.32 3.1 2.64 3.1 3.3 0 6.4-4.42 7.73-8.75.52-1.65.75-3.5.75-4.95M167 85.84l.58.6c-2.4 2.84-5.33 5.15-9.33 5.15-4.57 0-6.46-3.68-6.46-7.3 0-6.6 5.7-14 12.4-14 2.34 0 4.56 1.26 4.56 3.57 0 1.8-.76 3.3-2.55 3.3-1.2 0-1.78-1-1.78-1.8 0-1.12 1.37-1.7 1.37-2.72 0-.57-.48-1-1.6-1-5.62 0-8.3 8.44-8.3 12.2 0 4.1 2.3 5.15 4.42 5.15 2.88 0 5.05-1.56 6.7-3.16M178.04 79.3c0 .88-.74 1.54-1.6 1.54-.97 0-1.6-.66-1.6-1.53 0-.82.63-1.66 1.6-1.66.86 0 1.6.84 1.6 1.67m-1 4.17l-3.07 12.14c-.03.2-.03.34-.03.47 0 .24.2.34.43.34.73 0 .93-.4 2.13-1.7l.44.34c-1.17 1.5-2.84 3.5-4.47 3.5-.93 0-1.33-.63-1.33-1.53 0-.4 0-1.03 2.63-11.26.03-.07.07-.3.07-.4 0-.57-.27-.73-1.04-.73-.3 0-.7.07-.93.14l-.1-.53M154 122.25l-7 28.18c-.06.14-.1.42-.1.57 0 .28.23.42.7.42.95 0 2.27-1.65 2.93-2.64l.5.57c-1.4 2.12-3.9 4.94-6.1 4.94-1.52 0-1.9-1.1-1.9-1.94 0-.94.1-1.6.47-3h-.23c-3.5 4.37-6.32 4.93-8.06 4.93-3.43 0-4.14-3.5-4.14-6 0-4.84 4.86-15.35 12.1-15.35 2.7 0 3.78 1.22 3.83 2.35h.1l2.48-9.85c.05-.18.1-.37.1-.56 0-.62-.33-.95-1.56-.95-.42 0-.94.1-1.27.14l-.2-.72m-.37 14.33c0-2.2-.7-3.34-2.63-3.34-4.67 0-8.5 9.43-8.5 13.95 0 2.32 1.33 3.12 2.65 3.12 3.3 0 6.4-4.43 7.73-8.77.52-1.65.75-3.48.75-4.94M168.62 140.16l2.12-3.25c1.23-1.88 2.88-3.95 5.23-3.95 1.5 0 2.3.56 2.3 1.55 0 .9-.6 1.98-1.83 1.98-1.03 0-1.27-.42-2.07-.42-1.4 0-1.93.75-2.6 1.8l-2.58 4c1.4 2.9 2.5 9.28 4.6 9.28.76 0 1.9-.66 2.88-2.7l.66.48c-.57.7-2.7 5.23-5.42 5.23-1.93 0-2.83-1.93-3.44-3.63l-1.88-5.32-2.97 4.62c-1.5 2.3-2.88 4.33-5.52 4.33-1.68 0-2.44-1.18-2.44-2.2 0-.77.62-1.76 1.8-1.76 1.22 0 1.03.94 2.2.94.57 0 1.8-.47 3.3-2.78l3.07-4.76-1.55-4.34c-.8-2.26-2.03-4.2-4.62-4.2-.62 0-1.32.1-1.8.3l-.14-.86 6.23-1.55c2.07 1.13 2.96 3.06 3.53 4.6"/></g></svg>
