<svg xmlns="http://www.w3.org/2000/svg" xmlns:xlink="http://www.w3.org/1999/xlink" xmlns:lucid="lucid" width="808" height="264"><g transform="translate(-184 -138)" lucid:page-tab-id="0_0"><path d="M193.6 146.33c0-3.3 2.7-6 6-6h560.67c3.3 0 6 2.7 6 6v326c0 3.32-2.7 6-6 6H199.6c-3.3 0-6-2.68-6-6z" stroke="#000" stroke-opacity="0" stroke-width="3" fill="#fff" fill-opacity="0"/><use xlink:href="#a" transform="matrix(1,0,0,1,198.60349157849265,145.3333333333337) translate(6.19753086419928 216.6805555555549)"/><path d="M952.53 357.93V180.57H775.18z" stroke="#000" stroke-width="3" fill-opacity="0"/><path d="M771.6 189.06l25.4 25.2V337.5h123.25L944 361.25l-172.18.17z" stroke="#000" stroke-opacity="0" stroke-width="3"/><defs><path d="M212-179c-10-28-35-45-73-45-59 0-87 40-87 99 0 60 29 101 89 101 43 0 62-24 78-52l27 14C228-24 195 4 139 4 59 4 22-46 18-125c-6-104 99-153 187-111 19 9 31 26 39 46" id="b"/><path d="M185-189c-5-48-123-54-124 2 14 75 158 14 163 119 3 78-121 87-175 55-17-10-28-26-33-46l33-7c5 56 141 63 141-1 0-78-155-14-162-118-5-82 145-84 179-34 5 7 8 16 11 25" id="c"/><path d="M30-248c118-7 216 8 213 122C240-48 200 0 122 0H30v-248zM63-27c89 8 146-16 146-99s-60-101-146-95v194" id="d"/><g id="a"><use transform="matrix(0.7345679012345656,0,0,0.7345679012345656,0,0)" xlink:href="#b"/><use transform="matrix(0.7345679012345656,0,0,0.7345679012345656,190.2530864197525,0)" xlink:href="#c"/><use transform="matrix(0.7345679012345656,0,0,0.7345679012345656,366.5493827160482,0)" xlink:href="#d"/></g></defs></g></svg>