<svg xmlns="http://www.w3.org/2000/svg" xmlns:xlink="http://www.w3.org/1999/xlink" xmlns:lucid="lucid" width="660.36" height="480"><g transform="translate(-20.000000000000057 -20)" lucid:page-tab-id="0_0"><path d="M160.36 40h500v440h-500z" stroke="#000" stroke-opacity="0" stroke-width="3" fill="#ffdba9"/><use xlink:href="#a" transform="matrix(1,0,0,1,165.36363636363632,45) translate(0 17.77777777777778)"/><use xlink:href="#b" transform="matrix(1,0,0,1,165.36363636363632,45) translate(75.06172839506172 17.77777777777778)"/><path d="M99.64 110.18c0 16.47-13.35 29.82-29.82 29.82S40 126.65 40 110.18s13.35-29.82 29.82-29.82 29.82 13.35 29.82 29.82z" stroke="#000" stroke-opacity="0" stroke-width="3" fill="#c7e8ac"/><use xlink:href="#c" transform="matrix(1,0,0,1,45.00000000000006,85.36363636363637) translate(19.444444444444443 30.27777777777778)"/><path d="M99.64 360.36c0 16.47-13.35 29.82-29.82 29.82S40 376.83 40 360.36c0-16.46 13.35-29.8 29.82-29.8s29.82 13.34 29.82 29.8z" stroke="#000" stroke-opacity="0" stroke-width="3" fill="#ffbbb1"/><use xlink:href="#d" transform="matrix(1,0,0,1,45.00000000000006,335.5454543712453) translate(19.444444444444443 30.27777777777778)"/><path d="M260 109.82c0 16.47-13.35 29.82-29.82 29.82s-29.82-13.35-29.82-29.82S213.7 80 230.18 80 260 93.35 260 109.82z" stroke="#000" stroke-opacity="0" stroke-width="3" fill="#c7e8ac"/><use xlink:href="#c" transform="matrix(1,0,0,1,205.36363636363654,85) translate(19.444444444444443 30.27777777777778)"/><path d="M260 229.45c0 16.47-13.35 29.82-29.82 29.82s-29.82-13.35-29.82-29.82c0-16.46 13.35-29.8 29.82-29.8S260 212.98 260 229.44z" stroke="#000" stroke-opacity="0" stroke-width="3" fill="#c7e8ac"/><use xlink:href="#d" transform="matrix(1,0,0,1,205.36363636363654,204.63636363636363) translate(19.444444444444443 30.27777777777778)"/><path d="M620 169.82c0 16.47-13.35 29.82-29.82 29.82s-29.82-13.35-29.82-29.82S573.7 140 590.18 140 620 153.35 620 169.82z" stroke="#000" stroke-opacity="0" stroke-width="3" fill="#ffbbb1"/><use xlink:href="#e" transform="matrix(1,0,0,1,565.3636363636363,145) translate(21.32716049382716 30.27777777777778)"/><path d="M340.36 106c0-3.3 2.7-6 6-6h148c3.32 0 6 2.7 6 6v128c0 3.3-2.68 6-6 6h-148c-3.3 0-6-2.7-6-6z" stroke="#000" stroke-opacity="0" stroke-width="3" fill="#c1e4f7"/><use xlink:href="#f" transform="matrix(1,0,0,1,352.3636363636364,112) translate(37.81481481481482 61.27777777777778)"/><path d="M501.36 170h28.9c.06 0 .1-.04.1-.1 0-.04.04-.08.1-.08h11.4" stroke="#5e5e5e" stroke-width="2" fill="none"/><path d="M501.4 171h-1.04v-2h1.03" fill="#5e5e5e"/><path d="M557.13 169.82l-14.27 4.63v-9.27z" stroke="#5e5e5e" stroke-width="2" fill="#5e5e5e"/><path d="M260.8 110.42l64.75 48.5" stroke="#5e5e5e" stroke-width="2" fill="none"/><path d="M261.42 109.63l-1.2 1.6-.32-.24.1-1.18-.04-1.28" fill="#5e5e5e"/><path d="M337.77 168.06l-14.2-4.84 5.56-7.42z" stroke="#5e5e5e" stroke-width="2" fill="#5e5e5e"/><path d="M260.8 228.86L325.5 181" stroke="#5e5e5e" stroke-width="2" fill="none"/><path d="M261.42 229.65l-1.53 1.13.1-1.33-.04-1.2.27-.2" fill="#5e5e5e"/><path d="M337.76 171.92l-8.7 12.22-5.52-7.46z" stroke="#5e5e5e" stroke-width="2" fill="#5e5e5e"/><path d="M100.64 110.18h49.18c.1 0 .18-.08.18-.18 0-.1.08-.18.18-.18h31.68" stroke="#5e5e5e" stroke-width="2" fill="none"/><path d="M100.66 111.18h-1.1l.08-1-.03-1h1.06" fill="#5e5e5e"/><path d="M197.13 109.82l-14.27 4.63v-9.27z" stroke="#5e5e5e" stroke-width="2" fill="#5e5e5e"/><path d="M340.36 280.36h160v160h-160z" stroke="#000" stroke-opacity="0" stroke-width="3" fill="#fff"/><use xlink:href="#g" transform="matrix(1,0,0,1,345.3636363636364,285.3636361894271) translate(43.58024691358025 78.71527777777777)"/><path d="M590.18 200.64v153.72c0 3.32-2.68 6-6 6h-65.3" stroke="#5e5e5e" stroke-width="2" fill="none"/><path d="M590.18 199.64l1-.03v1.06h-2v-1.1" fill="#5e5e5e"/><path d="M503.6 360.36l14.27-4.63V365z" stroke="#5e5e5e" stroke-width="2" fill="#5e5e5e"/><path d="M339.36 360.36H236.18c-3.3 0-6-2.68-6-6v-76.6" stroke="#5e5e5e" stroke-width="2" fill="none"/><path d="M340.36 361.36h-1.02v-2h1.02" fill="#5e5e5e"/><path d="M230.18 262.5l4.64 14.27h-9.27z" stroke="#5e5e5e" stroke-width="2" fill="#5e5e5e"/><path d="M339.36 360.36H118.14" stroke="#5e5e5e" stroke-width="2" fill="none"/><path d="M340.36 361.36h-1.02v-2h1.02" fill="#5e5e5e"/><path d="M102.87 360.36l14.27-4.63V365z" stroke="#5e5e5e" stroke-width="2" fill="#5e5e5e"/><defs><path d="M33 0v-248h34V0H33" id="h"/><path d="M210-169c-67 3-38 105-44 169h-31v-121c0-29-5-50-35-48C34-165 62-65 56 0H25l-1-190h30c1 10-1 24 2 32 10-44 99-50 107 0 11-21 27-35 58-36 85-2 47 119 55 194h-31v-121c0-29-5-49-35-48" id="i"/><path d="M115-194c55 1 70 41 70 98S169 2 115 4C84 4 66-9 55-30l1 105H24l-1-265h31l2 30c10-21 28-34 59-34zm-8 174c40 0 45-34 45-75s-6-73-45-74c-42 0-51 32-51 76 0 43 10 73 51 73" id="j"/><path d="M24 0v-261h32V0H24" id="k"/><path d="M24-231v-30h32v30H24zM24 0v-190h32V0H24" id="l"/><path d="M96-169c-40 0-48 33-48 73s9 75 48 75c24 0 41-14 43-38l32 2c-6 37-31 61-74 61-59 0-76-41-82-99-10-93 101-131 147-64 4 7 5 14 7 22l-32 3c-4-21-16-35-41-35" id="m"/><path d="M59-47c-2 24 18 29 38 22v24C64 9 27 4 27-40v-127H5v-23h24l9-43h21v43h35v23H59v120" id="n"/><g id="a"><use transform="matrix(0.06172839506172839,0,0,0.06172839506172839,0,0)" xlink:href="#h"/><use transform="matrix(0.06172839506172839,0,0,0.06172839506172839,6.172839506172839,0)" xlink:href="#i"/><use transform="matrix(0.06172839506172839,0,0,0.06172839506172839,24.629629629629626,0)" xlink:href="#j"/><use transform="matrix(0.06172839506172839,0,0,0.06172839506172839,36.9753086419753,0)" xlink:href="#k"/><use transform="matrix(0.06172839506172839,0,0,0.06172839506172839,41.85185185185185,0)" xlink:href="#l"/><use transform="matrix(0.06172839506172839,0,0,0.06172839506172839,46.72839506172839,0)" xlink:href="#m"/><use transform="matrix(0.06172839506172839,0,0,0.06172839506172839,57.839506172839506,0)" xlink:href="#l"/><use transform="matrix(0.06172839506172839,0,0,0.06172839506172839,62.71604938271605,0)" xlink:href="#n"/></g><path d="M140-251c81 0 123 46 123 126C263-46 219 4 140 4 59 4 17-45 17-125s42-126 123-126zm0 227c63 0 89-41 89-101s-29-99-89-99c-61 0-89 39-89 99S79-25 140-24" id="o"/><path d="M100-194c63 0 86 42 84 106H49c0 40 14 67 53 68 26 1 43-12 49-29l28 8c-11 28-37 45-77 45C44 4 14-33 15-96c1-61 26-98 85-98zm52 81c6-60-76-77-97-28-3 7-6 17-6 28h103" id="p"/><path d="M114-163C36-179 61-72 57 0H25l-1-190h30c1 12-1 29 2 39 6-27 23-49 58-41v29" id="q"/><path d="M141-36C126-15 110 5 73 4 37 3 15-17 15-53c-1-64 63-63 125-63 3-35-9-54-41-54-24 1-41 7-42 31l-33-3c5-37 33-52 76-52 45 0 72 20 72 64v82c-1 20 7 32 28 27v20c-31 9-61-2-59-35zM48-53c0 20 12 33 32 33 41-3 63-29 60-74-43 2-92-5-92 41" id="r"/><path d="M100-194c62-1 85 37 85 99 1 63-27 99-86 99S16-35 15-95c0-66 28-99 85-99zM99-20c44 1 53-31 53-75 0-43-8-75-51-75s-53 32-53 75 10 74 51 75" id="s"/><path d="M117-194c89-4 53 116 60 194h-32v-121c0-31-8-49-39-48C34-167 62-67 57 0H25l-1-190h30c1 10-1 24 2 32 11-22 29-35 61-36" id="t"/><g id="b"><use transform="matrix(0.06172839506172839,0,0,0.06172839506172839,0,0)" xlink:href="#o"/><use transform="matrix(0.06172839506172839,0,0,0.06172839506172839,17.28395061728395,0)" xlink:href="#j"/><use transform="matrix(0.06172839506172839,0,0,0.06172839506172839,29.629629629629626,0)" xlink:href="#p"/><use transform="matrix(0.06172839506172839,0,0,0.06172839506172839,41.9753086419753,0)" xlink:href="#q"/><use transform="matrix(0.06172839506172839,0,0,0.06172839506172839,49.32098765432098,0)" xlink:href="#r"/><use transform="matrix(0.06172839506172839,0,0,0.06172839506172839,61.66666666666666,0)" xlink:href="#n"/><use transform="matrix(0.06172839506172839,0,0,0.06172839506172839,67.83950617283949,0)" xlink:href="#l"/><use transform="matrix(0.06172839506172839,0,0,0.06172839506172839,72.71604938271604,0)" xlink:href="#s"/><use transform="matrix(0.06172839506172839,0,0,0.06172839506172839,85.06172839506172,0)" xlink:href="#t"/></g><path d="M141 0L90-78 38 0H4l68-98-65-92h35l48 74 47-74h35l-64 92 68 98h-35" id="u"/><use transform="matrix(0.06172839506172839,0,0,0.06172839506172839,0,0)" xlink:href="#u" id="c"/><path d="M179-190L93 31C79 59 56 82 12 73V49c39 6 53-20 64-50L1-190h34L92-34l54-156h33" id="v"/><use transform="matrix(0.06172839506172839,0,0,0.06172839506172839,0,0)" xlink:href="#v" id="d"/><use transform="matrix(0.06172839506172839,0,0,0.06172839506172839,0,0)" xlink:href="#q" id="e"/><path d="M240 0l2-218c-23 76-54 145-80 218h-23L58-218 59 0H30v-248h44l77 211c21-75 51-140 76-211h43V0h-30" id="w"/><path d="M85-194c31 0 48 13 60 33l-1-100h32l1 261h-30c-2-10 0-23-3-31C134-8 116 4 85 4 32 4 16-35 15-94c0-66 23-100 70-100zm9 24c-40 0-46 34-46 75 0 40 6 74 45 74 42 0 51-32 51-76 0-42-9-74-50-73" id="x"/><g id="f"><use transform="matrix(0.06172839506172839,0,0,0.06172839506172839,0,0)" xlink:href="#w"/><use transform="matrix(0.06172839506172839,0,0,0.06172839506172839,18.456790123456788,0)" xlink:href="#s"/><use transform="matrix(0.06172839506172839,0,0,0.06172839506172839,30.80246913580247,0)" xlink:href="#x"/><use transform="matrix(0.06172839506172839,0,0,0.06172839506172839,43.148148148148145,0)" xlink:href="#p"/><use transform="matrix(0.06172839506172839,0,0,0.06172839506172839,55.49382716049382,0)" xlink:href="#k"/></g><path d="M185-189c-5-48-123-54-124 2 14 75 158 14 163 119 3 78-121 87-175 55-17-10-28-26-33-46l33-7c5 56 141 63 141-1 0-78-155-14-162-118-5-82 145-84 179-34 5 7 8 16 11 25" id="y"/><path d="M108 0H70L1-190h34L89-25l56-165h34" id="z"/><g id="g"><use transform="matrix(0.06172839506172839,0,0,0.06172839506172839,0,0)" xlink:href="#y"/><use transform="matrix(0.06172839506172839,0,0,0.06172839506172839,14.814814814814813,0)" xlink:href="#s"/><use transform="matrix(0.06172839506172839,0,0,0.06172839506172839,27.160493827160494,0)" xlink:href="#k"/><use transform="matrix(0.06172839506172839,0,0,0.06172839506172839,32.03703703703704,0)" xlink:href="#z"/><use transform="matrix(0.06172839506172839,0,0,0.06172839506172839,43.14814814814815,0)" xlink:href="#p"/><use transform="matrix(0.06172839506172839,0,0,0.06172839506172839,55.49382716049383,0)" xlink:href="#q"/></g></defs></g></svg>