<svg xmlns="http://www.w3.org/2000/svg" xmlns:xlink="http://www.w3.org/1999/xlink" xmlns:lucid="lucid" width="1280" height="1928.33"><g transform="translate(-885.3333333333333 172.8333333333336)" lucid:page-tab-id="0_0"><path d="M0-1296h3456v3952H0z" fill="#fff"/><path d="M1065.33-146.83c0-3.32 2.7-6 6-6h1068c3.32 0 6 2.68 6 6v792.16c0 3.32-2.68 6-6 6h-1068c-3.3 0-6-2.68-6-6z" stroke="#000" stroke-width="3" fill="#fff"/><use xlink:href="#a" transform="matrix(1,0,0,1,1077.3333333333333,-140.8333333333336) translate(0 17.77777777777778)"/><use xlink:href="#b" transform="matrix(1,0,0,1,1077.3333333333333,-140.8333333333336) translate(66.5432098765432 17.77777777777778)"/><path d="M1505.33 457.33c0-3.3 2.7-6 6-6h608c3.32 0 6 2.7 6 6v168c0 3.32-2.68 6-6 6h-608c-3.3 0-6-2.68-6-6z" stroke="#000" stroke-width="3" fill="#fff"/><use xlink:href="#a" transform="matrix(1,0,0,1,1517.3333333333333,463.3333333333328) translate(0 17.77777777777778)"/><use xlink:href="#c" transform="matrix(1,0,0,1,1517.3333333333333,463.3333333333328) translate(66.5432098765432 17.77777777777778)"/><path d="M1505.33-122.67c0-3.3 2.7-6 6-6h608c3.32 0 6 2.7 6 6v548c0 3.32-2.68 6-6 6h-608c-3.3 0-6-2.68-6-6z" stroke="#000" stroke-width="3" fill="#fff"/><use xlink:href="#a" transform="matrix(1,0,0,1,1517.3333333333333,-116.6666666666672) translate(0 17.77777777777778)"/><use xlink:href="#d" transform="matrix(1,0,0,1,1517.3333333333333,-116.6666666666672) translate(66.5432098765432 17.77777777777778)"/><path d="M1230.67-2.87c.86-3.2 4.24-5.8 7.55-5.8h97.33c3.32 0 5.3 2.6 4.46 5.8l-7.57 28.4c-.85 3.2-4.23 5.8-7.54 5.8h-97.35c-3.3 0-5.3-2.6-4.45-5.8z" stroke="#000" stroke-width="3" fill="#ffbbb1"/><use xlink:href="#e" transform="matrix(1,0,0,1,1226.5524173074948,-3.666666666667197) translate(48.83216049382716 19.65277777777778)"/><path d="M1338.77 11.33h124.28" stroke="#000" stroke-width="2" fill="none"/><path d="M1338.8 12.33h-1.3l.54-2h.76"/><path d="M1478.32 11.33l-14.27 4.64V6.7z" stroke="#000" stroke-width="2"/><path d="M1834.45 77.13c.86-3.2 4.24-5.8 7.55-5.8h97.33c3.32 0 5.3 2.6 4.46 5.8l-7.6 28.4c-.84 3.2-4.22 5.8-7.53 5.8h-97.34c-3.3 0-5.3-2.6-4.45-5.8z" stroke="#000" stroke-width="3" fill="#c7e8ac"/><use xlink:href="#f" transform="matrix(1,0,0,1,1830.3333333333333,76.33333333333303) translate(49.449444444444445 19.65277777777778)"/><path d="M1810.6 91.33h-104.28" stroke="#000" stroke-width="2" fill="none"/><path d="M1825.88 91.33l-14.27 4.64V86.7z" stroke="#000" stroke-width="2"/><path d="M1706.36 91.33h-1.03" stroke="#000" stroke-width="2" fill="none"/><path d="M1834.45-82.87c.86-3.2 4.24-5.8 7.55-5.8h97.33c3.32 0 5.3 2.6 4.46 5.8l-7.6 28.4c-.84 3.2-4.22 5.8-7.53 5.8h-97.34c-3.3 0-5.3-2.6-4.45-5.8z" stroke="#000" stroke-width="3" fill="#c7e8ac"/><use xlink:href="#g" transform="matrix(1,0,0,1,1830.3333333333333,-83.6666666666672) translate(48.83216049382716 19.65277777777778)"/><path d="M1810.6-68.67h-104.28" stroke="#000" stroke-width="2" fill="none"/><path d="M1825.88-68.67l-14.27 4.64v-9.27z" stroke="#000" stroke-width="2"/><path d="M1706.36-68.67h-1.03" stroke="#000" stroke-width="2" fill="none"/><path d="M1834.45-2.87c.86-3.2 4.24-5.8 7.55-5.8h97.33c3.32 0 5.3 2.6 4.46 5.8l-7.6 28.4c-.84 3.2-4.22 5.8-7.53 5.8h-97.34c-3.3 0-5.3-2.6-4.45-5.8z" stroke="#000" stroke-width="3" fill="#c7e8ac"/><use xlink:href="#e" transform="matrix(1,0,0,1,1830.3333333333333,-3.666666666667197) translate(48.83216049382716 19.65277777777778)"/><path d="M1810.6 11.33h-104.27" stroke="#000" stroke-width="2" fill="none"/><path d="M1825.88 11.33l-14.27 4.64V6.7z" stroke="#000" stroke-width="2"/><path d="M1706.36 11.33h-1.03" stroke="#000" stroke-width="2" fill="none"/><path d="M1230.67 77.13c.86-3.2 4.24-5.8 7.55-5.8h97.33c3.32 0 5.3 2.6 4.46 5.8l-7.57 28.4c-.85 3.2-4.23 5.8-7.54 5.8h-97.35c-3.3 0-5.3-2.6-4.45-5.8z" stroke="#000" stroke-width="3" fill="#c1e4f7"/><use xlink:href="#f" transform="matrix(1,0,0,1,1226.5524173074948,76.33333333333303) translate(49.449444444444445 19.65277777777778)"/><path d="M1338.77 91.33h124.28" stroke="#000" stroke-width="2" fill="none"/><path d="M1338.8 92.33h-1.3l.54-2h.76"/><path d="M1478.32 91.33l-14.27 4.64V86.7z" stroke="#000" stroke-width="2"/><path d="M914.45 77.13c.86-3.2 4.24-5.8 7.55-5.8h97.33c3.32 0 5.3 2.6 4.46 5.8l-7.6 28.4c-.84 3.2-4.22 5.8-7.53 5.8h-97.34c-3.3 0-5.3-2.6-4.45-5.8z" stroke="#000" stroke-width="3" fill="#c1e4f7"/><use xlink:href="#f" transform="matrix(1,0,0,1,910.3333333333333,76.33333333333303) translate(49.449444444444445 19.65277777777778)"/><path d="M1022.55 91.33h184.28" stroke="#000" stroke-width="2" fill="none"/><path d="M1022.58 92.33h-1.3l.54-2h.76"/><path d="M1222.1 91.33l-14.27 4.64V86.7z" stroke="#000" stroke-width="2"/><path d="M1230.67-82.87c.86-3.2 4.24-5.8 7.55-5.8h97.33c3.32 0 5.3 2.6 4.46 5.8l-7.57 28.4c-.85 3.2-4.23 5.8-7.54 5.8h-97.35c-3.3 0-5.3-2.6-4.45-5.8z" stroke="#000" stroke-width="3" fill="#c7e8ac"/><use xlink:href="#g" transform="matrix(1,0,0,1,1226.5524173074948,-83.6666666666672) translate(48.83216049382716 19.65277777777778)"/><path d="M1206.83-68.67h-104.28" stroke="#000" stroke-width="2" fill="none"/><path d="M1222.1-68.67l-14.27 4.64v-9.27z" stroke="#000" stroke-width="2"/><path d="M1102.58-68.67h-1.03" stroke="#000" stroke-width="2" fill="none"/><path d="M1230.67 377.13c.86-3.2 4.24-5.8 7.55-5.8h97.33c3.32 0 5.3 2.6 4.46 5.8l-7.57 28.4c-.85 3.2-4.23 5.8-7.54 5.8h-97.35c-3.3 0-5.3-2.6-4.45-5.8z" stroke="#000" stroke-width="3" fill="#c7e8ac"/><use xlink:href="#h" transform="matrix(1,0,0,1,1226.5524173074948,376.3333333333328) translate(51.91858024691358 19.65277777777778)"/><path d="M1206.83 391.33h-104.28" stroke="#000" stroke-width="2" fill="none"/><path d="M1222.1 391.33l-14.27 4.64v-9.27z" stroke="#000" stroke-width="2"/><path d="M1102.58 391.33h-1.03" stroke="#000" stroke-width="2" fill="none"/><path d="M1834.45 377.13c.86-3.2 4.24-5.8 7.55-5.8h97.33c3.32 0 5.3 2.6 4.46 5.8l-7.6 28.4c-.84 3.2-4.22 5.8-7.53 5.8h-97.34c-3.3 0-5.3-2.6-4.45-5.8z" stroke="#000" stroke-width="3" fill="#ffbbb1"/><use xlink:href="#h" transform="matrix(1,0,0,1,1830.3333333333333,376.3333333333328) translate(51.91858024691358 19.65277777777778)"/><path d="M1942.55 391.33h124.28" stroke="#000" stroke-width="2" fill="none"/><path d="M1942.58 392.33h-1.3l.54-2h.76"/><path d="M2082.1 391.33l-14.27 4.64v-9.27z" stroke="#000" stroke-width="2"/><path d="M1834.45 157.13c.86-3.2 4.24-5.8 7.55-5.8h97.33c3.32 0 5.3 2.6 4.46 5.8l-7.6 28.4c-.84 3.2-4.22 5.8-7.53 5.8h-97.34c-3.3 0-5.3-2.6-4.45-5.8z" stroke="#000" stroke-width="3" fill="#c1e4f7"/><use xlink:href="#i" transform="matrix(1,0,0,1,1830.3333333333333,156.3333333333328) translate(48.83216049382716 19.65277777777778)"/><path d="M1942.55 171.33h124.28" stroke="#000" stroke-width="2" fill="none"/><path d="M1942.58 172.33h-1.3l.54-2h.76"/><path d="M2082.1 171.33l-14.27 4.64v-9.27z" stroke="#000" stroke-width="2"/><path d="M914.45 157.13c.86-3.2 4.24-5.8 7.55-5.8h97.33c3.32 0 5.3 2.6 4.46 5.8l-7.6 28.4c-.84 3.2-4.22 5.8-7.53 5.8h-97.34c-3.3 0-5.3-2.6-4.45-5.8z" stroke="#000" stroke-width="3" fill="#c1e4f7"/><use xlink:href="#i" transform="matrix(1,0,0,1,910.3333333333333,156.3333333333328) translate(48.83216049382716 19.65277777777778)"/><path d="M1022.55 171.33h788.06" stroke="#000" stroke-width="2" fill="none"/><path d="M1022.58 172.33h-1.3l.54-2h.76"/><path d="M1825.88 171.33l-14.27 4.64v-9.27z" stroke="#000" stroke-width="2"/><path d="M1230.67 217.13c.86-3.2 4.24-5.8 7.55-5.8h97.33c3.32 0 5.3 2.6 4.46 5.8l-7.57 28.4c-.85 3.2-4.23 5.8-7.54 5.8h-97.35c-3.3 0-5.3-2.6-4.45-5.8z" stroke="#000" stroke-width="3" fill="#c7e8ac"/><use xlink:href="#i" transform="matrix(1,0,0,1,1226.5524173074948,216.3333333333328) translate(48.83216049382716 19.65277777777778)"/><path d="M1206.83 231.33h-104.28" stroke="#000" stroke-width="2" fill="none"/><path d="M1222.1 231.33l-14.27 4.64v-9.27z" stroke="#000" stroke-width="2"/><path d="M1102.58 231.33h-1.03" stroke="#000" stroke-width="2" fill="none"/><path d="M1230.67 297.13c.86-3.2 4.24-5.8 7.55-5.8h97.33c3.32 0 5.3 2.6 4.46 5.8l-7.57 28.4c-.85 3.2-4.23 5.8-7.54 5.8h-97.35c-3.3 0-5.3-2.6-4.45-5.8z" stroke="#000" stroke-width="3" fill="#c7e8ac"/><use xlink:href="#j" transform="matrix(1,0,0,1,1226.5524173074948,296.33333333333303) translate(48.83216049382716 19.65277777777778)"/><path d="M1206.83 311.33h-104.28" stroke="#000" stroke-width="2" fill="none"/><path d="M1222.1 311.33l-14.27 4.64v-9.27z" stroke="#000" stroke-width="2"/><path d="M1102.58 311.33h-1.03" stroke="#000" stroke-width="2" fill="none"/><path d="M1834.45 297.13c.86-3.2 4.24-5.8 7.55-5.8h97.33c3.32 0 5.3 2.6 4.46 5.8l-7.6 28.4c-.84 3.2-4.22 5.8-7.53 5.8h-97.34c-3.3 0-5.3-2.6-4.45-5.8z" stroke="#000" stroke-width="3" fill="#c7e8ac"/><use xlink:href="#j" transform="matrix(1,0,0,1,1830.3333333333333,296.33333333333303) translate(48.83216049382716 19.65277777777778)"/><path d="M1810.6 311.33h-104.28" stroke="#000" stroke-width="2" fill="none"/><path d="M1825.88 311.33l-14.27 4.64v-9.27z" stroke="#000" stroke-width="2"/><path d="M1706.36 311.33h-1.03" stroke="#000" stroke-width="2" fill="none"/><path d="M1834.45 575.63c.86-3.2 4.24-5.8 7.55-5.8h97.33c3.32 0 5.3 2.6 4.46 5.8l-7.6 28.4c-.84 3.2-4.22 5.8-7.53 5.8h-97.34c-3.3 0-5.3-2.6-4.45-5.8z" stroke="#000" stroke-width="3" fill="#c7e8ac"/><use xlink:href="#h" transform="matrix(1,0,0,1,1830.3333333333333,574.8333333333328) translate(51.91858024691358 19.65277777777778)"/><path d="M1810.6 589.83h-104.27" stroke="#000" stroke-width="2" fill="none"/><path d="M1825.88 589.83l-14.27 4.64v-9.27z" stroke="#000" stroke-width="2"/><path d="M1706.36 589.83h-1.03" stroke="#000" stroke-width="2" fill="none"/><path d="M1065.33 937.33c0-3.3 2.7-6 6-6h1068c3.32 0 6 2.7 6 6v792.17c0 3.3-2.68 6-6 6h-1068c-3.3 0-6-2.7-6-6z" stroke="#000" stroke-width="3" fill="#fff"/><use xlink:href="#a" transform="matrix(1,0,0,1,1077.3333333333333,943.3333333333334) translate(0 17.77777777777778)"/><use xlink:href="#b" transform="matrix(1,0,0,1,1077.3333333333333,943.3333333333334) translate(66.5432098765432 17.77777777777778)"/><path d="M1505.33 1541.5c0-3.3 2.7-6 6-6h608c3.32 0 6 2.7 6 6v168c0 3.3-2.68 6-6 6h-608c-3.3 0-6-2.7-6-6z" stroke="#000" stroke-width="3" fill="#fff"/><use xlink:href="#a" transform="matrix(1,0,0,1,1517.3333333333333,1547.4999999999998) translate(0 17.77777777777778)"/><use xlink:href="#c" transform="matrix(1,0,0,1,1517.3333333333333,1547.4999999999998) translate(66.5432098765432 17.77777777777778)"/><path d="M1505.33 961.5c0-3.3 2.7-6 6-6h608c3.32 0 6 2.7 6 6v548c0 3.3-2.68 6-6 6h-608c-3.3 0-6-2.7-6-6z" stroke="#000" stroke-width="3" fill="#fff"/><use xlink:href="#a" transform="matrix(1,0,0,1,1517.3333333333333,967.4999999999998) translate(0 17.77777777777778)"/><use xlink:href="#d" transform="matrix(1,0,0,1,1517.3333333333333,967.4999999999998) translate(66.5432098765432 17.77777777777778)"/><path d="M1232.02 1081.3c.85-3.2 4.23-5.8 7.54-5.8h97.34c3.3 0 5.3 2.6 4.45 5.8l-7.58 28.4c-.85 3.2-4.23 5.8-7.54 5.8h-97.33c-3.32 0-5.3-2.6-4.46-5.8z" stroke="#000" stroke-width="3" fill="#ffbbb1"/><use xlink:href="#e" transform="matrix(1,0,0,1,1227.8951653850102,1080.4999999999998) translate(48.83216049382716 19.65277777777778)"/><path d="M1340.1 1095.5h470.5" stroke="#000" stroke-width="2" fill="none"/><path d="M1340.14 1096.5h-1.3l.54-2h.76"/><path d="M1825.88 1095.5l-14.27 4.64v-9.28z" stroke="#000" stroke-width="2"/><path d="M1834.45 1161.3c.86-3.2 4.24-5.8 7.55-5.8h97.33c3.32 0 5.3 2.6 4.46 5.8l-7.6 28.4c-.84 3.2-4.22 5.8-7.53 5.8h-97.34c-3.3 0-5.3-2.6-4.45-5.8z" stroke="#000" stroke-width="3" fill="#c1e4f7"/><use xlink:href="#f" transform="matrix(1,0,0,1,1830.3333333333333,1160.5) translate(49.449444444444445 19.65277777777778)"/><path d="M1834.45 1001.3c.86-3.2 4.24-5.8 7.55-5.8h97.33c3.32 0 5.3 2.6 4.46 5.8l-7.6 28.4c-.84 3.2-4.22 5.8-7.53 5.8h-97.34c-3.3 0-5.3-2.6-4.45-5.8z" stroke="#000" stroke-width="3" fill="#c7e8ac"/><use xlink:href="#g" transform="matrix(1,0,0,1,1830.3333333333333,1000.4999999999999) translate(48.83216049382716 19.65277777777778)"/><path d="M1834.45 1081.3c.86-3.2 4.24-5.8 7.55-5.8h97.33c3.32 0 5.3 2.6 4.46 5.8l-7.6 28.4c-.84 3.2-4.22 5.8-7.53 5.8h-97.34c-3.3 0-5.3-2.6-4.45-5.8z" stroke="#000" stroke-width="3" fill="#c7e8ac"/><use xlink:href="#e" transform="matrix(1,0,0,1,1830.3333333333333,1080.4999999999998) translate(48.83216049382716 19.65277777777778)"/><path d="M1232.02 1161.3c.85-3.2 4.23-5.8 7.54-5.8h97.34c3.3 0 5.3 2.6 4.45 5.8l-7.58 28.4c-.85 3.2-4.23 5.8-7.54 5.8h-97.33c-3.32 0-5.3-2.6-4.46-5.8z" stroke="#000" stroke-width="3" fill="#c1e4f7"/><use xlink:href="#f" transform="matrix(1,0,0,1,1227.8951653850102,1160.5) translate(49.449444444444445 19.65277777777778)"/><path d="M1340.1 1175.5h470.5" stroke="#000" stroke-width="2" fill="none"/><path d="M1340.14 1176.5h-1.3l.54-2h.76"/><path d="M1825.88 1175.5l-14.27 4.64v-9.28z" stroke="#000" stroke-width="2"/><path d="M914.45 1161.3c.86-3.2 4.24-5.8 7.55-5.8h97.33c3.32 0 5.3 2.6 4.46 5.8l-7.6 28.4c-.84 3.2-4.22 5.8-7.53 5.8h-97.34c-3.3 0-5.3-2.6-4.45-5.8z" stroke="#000" stroke-width="3" fill="#c1e4f7"/><use xlink:href="#f" transform="matrix(1,0,0,1,910.3333333333333,1160.5) translate(49.449444444444445 19.65277777777778)"/><path d="M1022.55 1175.5h185.62" stroke="#000" stroke-width="2" fill="none"/><path d="M1022.58 1176.5h-1.3l.54-2h.76"/><path d="M1223.44 1175.5l-14.27 4.64v-9.28z" stroke="#000" stroke-width="2"/><path d="M1232.02 1001.3c.85-3.2 4.23-5.8 7.54-5.8h97.34c3.3 0 5.3 2.6 4.45 5.8l-7.58 28.4c-.85 3.2-4.23 5.8-7.54 5.8h-97.33c-3.32 0-5.3-2.6-4.46-5.8z" stroke="#000" stroke-width="3" fill="#c7e8ac"/><use xlink:href="#g" transform="matrix(1,0,0,1,1227.8951653850102,1000.4999999999999) translate(48.83216049382716 19.65277777777778)"/><path d="M1208.17 1015.5H1103.9" stroke="#000" stroke-width="2" fill="none"/><path d="M1223.44 1015.5l-14.27 4.64v-9.28z" stroke="#000" stroke-width="2"/><path d="M1103.92 1015.5h-1.02" stroke="#000" stroke-width="2" fill="none"/><path d="M1232.02 1461.3c.85-3.2 4.23-5.8 7.54-5.8h97.34c3.3 0 5.3 2.6 4.45 5.8l-7.58 28.4c-.85 3.2-4.23 5.8-7.54 5.8h-97.33c-3.32 0-5.3-2.6-4.46-5.8z" stroke="#000" stroke-width="3" fill="#ffbbb1"/><use xlink:href="#h" transform="matrix(1,0,0,1,1227.8951653850102,1460.4999999999998) translate(51.91858024691358 19.65277777777778)"/><path d="M1834.45 1461.3c.86-3.2 4.24-5.8 7.55-5.8h97.33c3.32 0 5.3 2.6 4.46 5.8l-7.6 28.4c-.84 3.2-4.22 5.8-7.53 5.8h-97.34c-3.3 0-5.3-2.6-4.45-5.8z" stroke="#000" stroke-width="3" fill="#ffbbb1"/><use xlink:href="#h" transform="matrix(1,0,0,1,1830.3333333333333,1460.4999999999998) translate(51.91858024691358 19.65277777777778)"/><path d="M1942.55 1475.5h124.28" stroke="#000" stroke-width="2" fill="none"/><path d="M1942.58 1476.5h-1.3l.54-2h.76"/><path d="M2082.1 1475.5l-14.27 4.64v-9.28z" stroke="#000" stroke-width="2"/><path d="M1834.45 1241.3c.86-3.2 4.24-5.8 7.55-5.8h97.33c3.32 0 5.3 2.6 4.46 5.8l-7.6 28.4c-.84 3.2-4.22 5.8-7.53 5.8h-97.34c-3.3 0-5.3-2.6-4.45-5.8z" stroke="#000" stroke-width="3" fill="#c1e4f7"/><use xlink:href="#i" transform="matrix(1,0,0,1,1830.3333333333333,1240.4999999999998) translate(48.83216049382716 19.65277777777778)"/><path d="M1942.55 1255.5h124.28" stroke="#000" stroke-width="2" fill="none"/><path d="M1942.58 1256.5h-1.3l.54-2h.76"/><path d="M2082.1 1255.5l-14.27 4.64v-9.28z" stroke="#000" stroke-width="2"/><path d="M914.45 1241.3c.86-3.2 4.24-5.8 7.55-5.8h97.33c3.32 0 5.3 2.6 4.46 5.8l-7.6 28.4c-.84 3.2-4.22 5.8-7.53 5.8h-97.34c-3.3 0-5.3-2.6-4.45-5.8z" stroke="#000" stroke-width="3" fill="#c1e4f7"/><use xlink:href="#i" transform="matrix(1,0,0,1,910.3333333333333,1240.4999999999998) translate(48.83216049382716 19.65277777777778)"/><path d="M1022.55 1255.5h95.56c3.33 0 6 2.7 6 6v48c0 3.3 2.7 6 6 6h78.07" stroke="#000" stroke-width="2" fill="none"/><path d="M1022.58 1256.5h-1.3l.54-2h.76"/><path d="M1223.44 1315.5l-14.27 4.64v-9.28z" stroke="#000" stroke-width="2"/><path d="M1232.02 1381.3c.85-3.2 4.23-5.8 7.54-5.8h97.34c3.3 0 5.3 2.6 4.45 5.8l-7.58 28.4c-.85 3.2-4.23 5.8-7.54 5.8h-97.33c-3.32 0-5.3-2.6-4.46-5.8z" stroke="#000" stroke-width="3" fill="#c7e8ac"/><use xlink:href="#j" transform="matrix(1,0,0,1,1227.8951653850102,1380.5) translate(48.83216049382716 19.65277777777778)"/><path d="M1208.17 1395.5H1103.9" stroke="#000" stroke-width="2" fill="none"/><path d="M1223.44 1395.5l-14.27 4.64v-9.28z" stroke="#000" stroke-width="2"/><path d="M1103.92 1395.5h-1.02" stroke="#000" stroke-width="2" fill="none"/><path d="M1834.45 1381.3c.86-3.2 4.24-5.8 7.55-5.8h97.33c3.32 0 5.3 2.6 4.46 5.8l-7.6 28.4c-.84 3.2-4.22 5.8-7.53 5.8h-97.34c-3.3 0-5.3-2.6-4.45-5.8z" stroke="#000" stroke-width="3" fill="#c7e8ac"/><use xlink:href="#j" transform="matrix(1,0,0,1,1830.3333333333333,1380.5) translate(48.83216049382716 19.65277777777778)"/><path d="M1834.45 1581.3c.86-3.2 4.24-5.8 7.55-5.8h97.33c3.32 0 5.3 2.6 4.46 5.8l-7.6 28.4c-.84 3.2-4.22 5.8-7.53 5.8h-97.34c-3.3 0-5.3-2.6-4.45-5.8z" stroke="#000" stroke-width="3" fill="#c7e8ac"/><use xlink:href="#j" transform="matrix(1,0,0,1,1830.3333333333333,1580.4999999999998) translate(48.83216049382716 19.65277777777778)"/><path d="M1340.1 1015.5h470.5" stroke="#000" stroke-width="2" fill="none"/><path d="M1340.14 1016.5h-1.3l.54-2h.76"/><path d="M1825.88 1015.5l-14.27 4.64v-9.28z" stroke="#000" stroke-width="2"/><path d="M1828.1 1475.5h-470.48" stroke="#000" stroke-width="2" fill="none"/><path d="M1828.85 1476.5h-.76v-2h1.28"/><path d="M1342.35 1475.5l14.27-4.64v9.28z" stroke="#000" stroke-width="2"/><path d="M1024.47 1255.5h786.14M1023.48 1255.5" stroke="#000" stroke-width="2" fill="none"/><path d="M1825.88 1255.5l-14.27 4.64v-9.28z" stroke="#000" stroke-width="2"/><path d="M1340.1 1395.5h470.5" stroke="#000" stroke-width="2" fill="none"/><path d="M1340.14 1396.5h-1.3l.54-2h.76"/><path d="M1825.88 1395.5l-14.27 4.64v-9.28z" stroke="#000" stroke-width="2"/><path d="M1340.1 1395.5h97c6.64 0 12 5.37 12 12v176c0 6.63 5.4 12 12 12h349.5" stroke="#000" stroke-width="2" fill="none"/><path d="M1340.14 1396.5h-1.3l.54-2h.76"/><path d="M1825.88 1595.5l-14.27 4.64v-9.28z" stroke="#000" stroke-width="2"/><path d="M1834.45 1659.8c.86-3.2 4.24-5.8 7.55-5.8h97.33c3.32 0 5.3 2.6 4.46 5.8l-7.6 28.4c-.84 3.2-4.22 5.8-7.53 5.8h-97.34c-3.3 0-5.3-2.6-4.45-5.8z" stroke="#000" stroke-width="3" fill="#c7e8ac"/><use xlink:href="#h" transform="matrix(1,0,0,1,1830.3333333333333,1658.9999999999998) translate(51.91858024691358 19.65277777777778)"/><path d="M1282.9 1498v164c0 6.63 5.37 12 12 12h515.7" stroke="#000" stroke-width="2" fill="none"/><path d="M1283.9 1498.03h-2V1497h2"/><path d="M1825.88 1674l-14.27 4.64v-9.28z" stroke="#000" stroke-width="2"/><path d="M1834.45 497.13c.86-3.2 4.24-5.8 7.55-5.8h97.33c3.32 0 5.3 2.6 4.46 5.8l-7.6 28.4c-.84 3.2-4.22 5.8-7.53 5.8h-97.34c-3.3 0-5.3-2.6-4.45-5.8z" stroke="#000" stroke-width="3" fill="#c7e8ac"/><use xlink:href="#j" transform="matrix(1,0,0,1,1830.3333333333333,496.3333333333328) translate(48.83216049382716 19.65277777777778)"/><path d="M1810.6 511.33h-104.27" stroke="#000" stroke-width="2" fill="none"/><path d="M1825.88 511.33l-14.27 4.64v-9.27z" stroke="#000" stroke-width="2"/><path d="M1706.36 511.33h-1.03" stroke="#000" stroke-width="2" fill="none"/><path d="M1095.8 469.13c.84-3.2 4.22-5.8 7.53-5.8h356c3.32 0 5.3 2.6 4.46 5.8l-8.92 33.4c-.85 3.2-4.23 5.8-7.55 5.8h-356c-3.3 0-5.3-2.6-4.45-5.8z" stroke="#000" stroke-width="3" fill="#c7e8ac"/><use xlink:href="#k" transform="matrix(1,0,0,1,1090.3333333333333,468.3333333333326) translate(66.23339506172839 22.15277777777778)"/><use xlink:href="#l" transform="matrix(1,0,0,1,1090.3333333333333,468.3333333333326) translate(133.94944444444445 22.15277777777778)"/><use xlink:href="#m" transform="matrix(1,0,0,1,1090.3333333333333,468.3333333333326) translate(225.184012345679 22.15277777777778)"/><path d="M1095.8 530.63c.84-3.2 4.22-5.8 7.53-5.8h356c3.32 0 5.3 2.6 4.46 5.8l-8.92 33.4c-.85 3.2-4.23 5.8-7.55 5.8h-356c-3.3 0-5.3-2.6-4.45-5.8z" stroke="#000" stroke-width="3" fill="#ffbbb1"/><g><use xlink:href="#k" transform="matrix(1,0,0,1,1090.3333333333333,529.8333333333328) translate(80.30746913580246 22.15277777777778)"/><use xlink:href="#n" transform="matrix(1,0,0,1,1090.3333333333333,529.8333333333328) translate(148.02351851851853 22.15277777777778)"/><use xlink:href="#o" transform="matrix(1,0,0,1,1090.3333333333333,529.8333333333328) translate(226.97413580246914 22.15277777777778)"/></g><path d="M1095.8 592.13c.84-3.2 4.22-5.8 7.53-5.8h356c3.32 0 5.3 2.6 4.46 5.8l-8.92 33.4c-.85 3.2-4.23 5.8-7.55 5.8h-356c-3.3 0-5.3-2.6-4.45-5.8z" stroke="#000" stroke-width="3" fill="#c1e4f7"/><g><use xlink:href="#k" transform="matrix(1,0,0,1,1090.3333333333333,591.333333333333) translate(14.412407407407395 22.15277777777778)"/><use xlink:href="#n" transform="matrix(1,0,0,1,1090.3333333333333,591.333333333333) translate(82.12845679012345 22.15277777777778)"/><use xlink:href="#p" transform="matrix(1,0,0,1,1090.3333333333333,591.333333333333) translate(161.07907407407407 22.15277777777778)"/><use xlink:href="#q" transform="matrix(1,0,0,1,1090.3333333333333,591.333333333333) translate(215.33833333333334 22.15277777777778)"/><use xlink:href="#r" transform="matrix(1,0,0,1,1090.3333333333333,591.333333333333) translate(240.0296913580247 22.15277777777778)"/><use xlink:href="#s" transform="matrix(1,0,0,1,1090.3333333333333,591.333333333333) translate(294.2272222222222 22.15277777777778)"/></g><g><path d="M1619.33 711.33c3.32 0 6 2.7 6 6v112c0 3.32 2.7 6 6 6h8c3.32 0 4 1.8 1.54 4.02l-31.08 27.97c-2.47 2.22-6.46 2.22-8.93 0l-31.08-27.97c-2.47-2.22-1.78-4.02 1.53-4.02h8c3.32 0 6-2.68 6-6v-112c0-3.3 2.7-6 6-6z" stroke="#000" stroke-width="3" fill="#fff"/></g><g><use xlink:href="#t" transform="matrix(6.123233995736766e-17,1,-1,6.123233995736766e-17,1640.3333333333335,716.3333333333333) translate(30.320987654320987 39.65277777777778)"/></g><path d="M1232.02 1301.3c.85-3.2 4.23-5.8 7.54-5.8h97.34c3.3 0 5.3 2.6 4.45 5.8l-7.58 28.4c-.85 3.2-4.23 5.8-7.54 5.8h-97.33c-3.32 0-5.3-2.6-4.46-5.8z" stroke="#000" stroke-width="3" fill="#c7e8ac"/><g><use xlink:href="#i" transform="matrix(1,0,0,1,1227.8951653850102,1300.5000000000002) translate(48.83216049382716 19.65277777777778)"/></g><defs><path fill="#333" d="M240 0l2-218c-23 76-54 145-80 218h-23L58-218 59 0H30v-248h44l77 211c21-75 51-140 76-211h43V0h-30" id="u"/><path fill="#333" d="M100-194c62-1 85 37 85 99 1 63-27 99-86 99S16-35 15-95c0-66 28-99 85-99zM99-20c44 1 53-31 53-75 0-43-8-75-51-75s-53 32-53 75 10 74 51 75" id="v"/><path fill="#333" d="M85-194c31 0 48 13 60 33l-1-100h32l1 261h-30c-2-10 0-23-3-31C134-8 116 4 85 4 32 4 16-35 15-94c0-66 23-100 70-100zm9 24c-40 0-46 34-46 75 0 40 6 74 45 74 42 0 51-32 51-76 0-42-9-74-50-73" id="w"/><path fill="#333" d="M100-194c63 0 86 42 84 106H49c0 40 14 67 53 68 26 1 43-12 49-29l28 8c-11 28-37 45-77 45C44 4 14-33 15-96c1-61 26-98 85-98zm52 81c6-60-76-77-97-28-3 7-6 17-6 28h103" id="x"/><path fill="#333" d="M24 0v-261h32V0H24" id="y"/><g id="a"><use transform="matrix(0.06172839506172839,0,0,0.06172839506172839,0,0)" xlink:href="#u"/><use transform="matrix(0.06172839506172839,0,0,0.06172839506172839,18.456790123456788,0)" xlink:href="#v"/><use transform="matrix(0.06172839506172839,0,0,0.06172839506172839,30.80246913580247,0)" xlink:href="#w"/><use transform="matrix(0.06172839506172839,0,0,0.06172839506172839,43.148148148148145,0)" xlink:href="#x"/><use transform="matrix(0.06172839506172839,0,0,0.06172839506172839,55.49382716049382,0)" xlink:href="#y"/></g><path fill="#333" d="M205 0l-28-72H64L36 0H1l101-248h38L239 0h-34zm-38-99l-47-123c-12 45-31 82-46 123h93" id="z"/><use transform="matrix(0.06172839506172839,0,0,0.06172839506172839,0,0)" xlink:href="#z" id="b"/><path fill="#333" d="M212-179c-10-28-35-45-73-45-59 0-87 40-87 99 0 60 29 101 89 101 43 0 62-24 78-52l27 14C228-24 195 4 139 4 59 4 22-46 18-125c-6-104 99-153 187-111 19 9 31 26 39 46" id="A"/><use transform="matrix(0.06172839506172839,0,0,0.06172839506172839,0,0)" xlink:href="#A" id="c"/><path fill="#333" d="M160-131c35 5 61 23 61 61C221 17 115-2 30 0v-248c76 3 177-17 177 60 0 33-19 50-47 57zm-97-11c50-1 110 9 110-42 0-47-63-36-110-37v79zm0 115c55-2 124 14 124-45 0-56-70-42-124-44v89" id="B"/><use transform="matrix(0.06172839506172839,0,0,0.06172839506172839,0,0)" xlink:href="#B" id="d"/><path fill="#333" d="M115-194c53 0 69 39 70 98 0 66-23 100-70 100C84 3 66-7 56-30L54 0H23l1-261h32v101c10-23 28-34 59-34zm-8 174c40 0 45-34 45-75 0-40-5-75-45-74-42 0-51 32-51 76 0 43 10 73 51 73" id="C"/><use transform="matrix(0.06172839506172839,0,0,0.06172839506172839,0,0)" xlink:href="#C" id="e"/><path fill="#333" d="M96-169c-40 0-48 33-48 73s9 75 48 75c24 0 41-14 43-38l32 2c-6 37-31 61-74 61-59 0-76-41-82-99-10-93 101-131 147-64 4 7 5 14 7 22l-32 3c-4-21-16-35-41-35" id="D"/><use transform="matrix(0.06172839506172839,0,0,0.06172839506172839,0,0)" xlink:href="#D" id="f"/><path fill="#333" d="M141-36C126-15 110 5 73 4 37 3 15-17 15-53c-1-64 63-63 125-63 3-35-9-54-41-54-24 1-41 7-42 31l-33-3c5-37 33-52 76-52 45 0 72 20 72 64v82c-1 20 7 32 28 27v20c-31 9-61-2-59-35zM48-53c0 20 12 33 32 33 41-3 63-29 60-74-43 2-92-5-92 41" id="E"/><use transform="matrix(0.06172839506172839,0,0,0.06172839506172839,0,0)" xlink:href="#E" id="g"/><path fill="#333" d="M101-234c-31-9-42 10-38 44h38v23H63V0H32v-167H5v-23h27c-7-52 17-82 69-68v24" id="F"/><use transform="matrix(0.06172839506172839,0,0,0.06172839506172839,0,0)" xlink:href="#F" id="h"/><use transform="matrix(0.06172839506172839,0,0,0.06172839506172839,0,0)" xlink:href="#w" id="i"/><use transform="matrix(0.06172839506172839,0,0,0.06172839506172839,0,0)" xlink:href="#x" id="j"/><path fill="#333" d="M179-190L93 31C79 59 56 82 12 73V49c39 6 53-20 64-50L1-190h34L92-34l54-156h33" id="G"/><g id="k"><use transform="matrix(0.06172839506172839,0,0,0.06172839506172839,0,0)" xlink:href="#y"/><use transform="matrix(0.06172839506172839,0,0,0.06172839506172839,4.876543209876543,0)" xlink:href="#v"/><use transform="matrix(0.06172839506172839,0,0,0.06172839506172839,17.22222222222222,0)" xlink:href="#D"/><use transform="matrix(0.06172839506172839,0,0,0.06172839506172839,28.333333333333332,0)" xlink:href="#E"/><use transform="matrix(0.06172839506172839,0,0,0.06172839506172839,40.67901234567901,0)" xlink:href="#y"/><use transform="matrix(0.06172839506172839,0,0,0.06172839506172839,45.55555555555556,0)" xlink:href="#y"/><use transform="matrix(0.06172839506172839,0,0,0.06172839506172839,50.4320987654321,0)" xlink:href="#G"/></g><path fill="#333" d="M114-163C36-179 61-72 57 0H25l-1-190h30c1 12-1 29 2 39 6-27 23-49 58-41v29" id="H"/><g id="l"><use transform="matrix(0.06172839506172839,0,0,0.06172839506172839,0,0)" xlink:href="#w"/><use transform="matrix(0.06172839506172839,0,0,0.06172839506172839,12.345679012345679,0)" xlink:href="#x"/><use transform="matrix(0.06172839506172839,0,0,0.06172839506172839,24.691358024691358,0)" xlink:href="#D"/><use transform="matrix(0.06172839506172839,0,0,0.06172839506172839,35.80246913580247,0)" xlink:href="#y"/><use transform="matrix(0.06172839506172839,0,0,0.06172839506172839,40.67901234567901,0)" xlink:href="#E"/><use transform="matrix(0.06172839506172839,0,0,0.06172839506172839,53.02469135802469,0)" xlink:href="#H"/><use transform="matrix(0.06172839506172839,0,0,0.06172839506172839,60.37037037037037,0)" xlink:href="#x"/><use transform="matrix(0.06172839506172839,0,0,0.06172839506172839,72.71604938271605,0)" xlink:href="#w"/></g><path fill="#333" d="M108 0H70L1-190h34L89-25l56-165h34" id="I"/><path fill="#333" d="M24-231v-30h32v30H24zM24 0v-190h32V0H24" id="J"/><g id="m"><use transform="matrix(0.06172839506172839,0,0,0.06172839506172839,0,0)" xlink:href="#I"/><use transform="matrix(0.06172839506172839,0,0,0.06172839506172839,11.11111111111111,0)" xlink:href="#E"/><use transform="matrix(0.06172839506172839,0,0,0.06172839506172839,23.45679012345679,0)" xlink:href="#H"/><use transform="matrix(0.06172839506172839,0,0,0.06172839506172839,30.80246913580247,0)" xlink:href="#J"/><use transform="matrix(0.06172839506172839,0,0,0.06172839506172839,35.67901234567901,0)" xlink:href="#E"/><use transform="matrix(0.06172839506172839,0,0,0.06172839506172839,48.02469135802469,0)" xlink:href="#C"/><use transform="matrix(0.06172839506172839,0,0,0.06172839506172839,60.37037037037037,0)" xlink:href="#y"/><use transform="matrix(0.06172839506172839,0,0,0.06172839506172839,65.24691358024691,0)" xlink:href="#x"/></g><path fill="#333" d="M117-194c89-4 53 116 60 194h-32v-121c0-31-8-49-39-48C34-167 62-67 57 0H25l-1-190h30c1 10-1 24 2 32 11-22 29-35 61-36" id="K"/><g id="n"><use transform="matrix(0.06172839506172839,0,0,0.06172839506172839,0,0)" xlink:href="#w"/><use transform="matrix(0.06172839506172839,0,0,0.06172839506172839,12.345679012345679,0)" xlink:href="#x"/><use transform="matrix(0.06172839506172839,0,0,0.06172839506172839,24.691358024691358,0)" xlink:href="#F"/><use transform="matrix(0.06172839506172839,0,0,0.06172839506172839,30.864197530864196,0)" xlink:href="#J"/><use transform="matrix(0.06172839506172839,0,0,0.06172839506172839,35.74074074074074,0)" xlink:href="#K"/><use transform="matrix(0.06172839506172839,0,0,0.06172839506172839,48.08641975308642,0)" xlink:href="#x"/><use transform="matrix(0.06172839506172839,0,0,0.06172839506172839,60.432098765432094,0)" xlink:href="#w"/></g><path fill="#333" d="M84 4C-5 8 30-112 23-190h32v120c0 31 7 50 39 49 72-2 45-101 50-169h31l1 190h-30c-1-10 1-25-2-33-11 22-28 36-60 37" id="L"/><path fill="#333" d="M59-47c-2 24 18 29 38 22v24C64 9 27 4 27-40v-127H5v-23h24l9-43h21v43h35v23H59v120" id="M"/><path fill="#333" d="M115-194c55 1 70 41 70 98S169 2 115 4C84 4 66-9 55-30l1 105H24l-1-265h31l2 30c10-21 28-34 59-34zm-8 174c40 0 45-34 45-75s-6-73-45-74c-42 0-51 32-51 76 0 43 10 73 51 73" id="N"/><g id="o"><use transform="matrix(0.06172839506172839,0,0,0.06172839506172839,0,0)" xlink:href="#v"/><use transform="matrix(0.06172839506172839,0,0,0.06172839506172839,12.345679012345679,0)" xlink:href="#L"/><use transform="matrix(0.06172839506172839,0,0,0.06172839506172839,24.691358024691358,0)" xlink:href="#M"/><use transform="matrix(0.06172839506172839,0,0,0.06172839506172839,30.864197530864196,0)" xlink:href="#N"/><use transform="matrix(0.06172839506172839,0,0,0.06172839506172839,43.20987654320987,0)" xlink:href="#L"/><use transform="matrix(0.06172839506172839,0,0,0.06172839506172839,55.55555555555555,0)" xlink:href="#M"/></g><g id="p"><use transform="matrix(0.06172839506172839,0,0,0.06172839506172839,0,0)" xlink:href="#J"/><use transform="matrix(0.06172839506172839,0,0,0.06172839506172839,4.876543209876543,0)" xlink:href="#K"/><use transform="matrix(0.06172839506172839,0,0,0.06172839506172839,17.22222222222222,0)" xlink:href="#N"/><use transform="matrix(0.06172839506172839,0,0,0.06172839506172839,29.5679012345679,0)" xlink:href="#L"/><use transform="matrix(0.06172839506172839,0,0,0.06172839506172839,41.913580246913575,0)" xlink:href="#M"/></g><g id="q"><use transform="matrix(0.06172839506172839,0,0,0.06172839506172839,0,0)" xlink:href="#M"/><use transform="matrix(0.06172839506172839,0,0,0.06172839506172839,6.172839506172839,0)" xlink:href="#v"/></g><path fill="#333" d="M210-169c-67 3-38 105-44 169h-31v-121c0-29-5-50-35-48C34-165 62-65 56 0H25l-1-190h30c1 10-1 24 2 32 10-44 99-50 107 0 11-21 27-35 58-36 85-2 47 119 55 194h-31v-121c0-29-5-49-35-48" id="O"/><g id="r"><use transform="matrix(0.06172839506172839,0,0,0.06172839506172839,0,0)" xlink:href="#O"/><use transform="matrix(0.06172839506172839,0,0,0.06172839506172839,18.456790123456788,0)" xlink:href="#E"/><use transform="matrix(0.06172839506172839,0,0,0.06172839506172839,30.80246913580247,0)" xlink:href="#J"/><use transform="matrix(0.06172839506172839,0,0,0.06172839506172839,35.67901234567901,0)" xlink:href="#K"/></g><g id="s"><use transform="matrix(0.06172839506172839,0,0,0.06172839506172839,0,0)" xlink:href="#O"/><use transform="matrix(0.06172839506172839,0,0,0.06172839506172839,18.456790123456788,0)" xlink:href="#v"/><use transform="matrix(0.06172839506172839,0,0,0.06172839506172839,30.80246913580247,0)" xlink:href="#w"/><use transform="matrix(0.06172839506172839,0,0,0.06172839506172839,43.148148148148145,0)" xlink:href="#x"/><use transform="matrix(0.06172839506172839,0,0,0.06172839506172839,55.49382716049382,0)" xlink:href="#y"/></g><g id="t"><use transform="matrix(0.06172839506172839,0,0,0.06172839506172839,0,0)" xlink:href="#N"/><use transform="matrix(0.06172839506172839,0,0,0.06172839506172839,12.345679012345679,0)" xlink:href="#H"/><use transform="matrix(0.06172839506172839,0,0,0.06172839506172839,19.691358024691358,0)" xlink:href="#v"/><use transform="matrix(0.06172839506172839,0,0,0.06172839506172839,32.03703703703704,0)" xlink:href="#O"/><use transform="matrix(0.06172839506172839,0,0,0.06172839506172839,50.49382716049382,0)" xlink:href="#v"/><use transform="matrix(0.06172839506172839,0,0,0.06172839506172839,62.8395061728395,0)" xlink:href="#M"/><use transform="matrix(0.06172839506172839,0,0,0.06172839506172839,69.01234567901234,0)" xlink:href="#x"/></g></defs></g></svg>