<svg xmlns="http://www.w3.org/2000/svg" xmlns:xlink="http://www.w3.org/1999/xlink" xmlns:lucid="lucid" width="1060" height="1040"><g transform="translate(-80 -20)" lucid:page-tab-id="0_0"><path d="M0 0h1760v1360H0z" fill="#fff"/><path d="M260 46c0-3.3 2.7-6 6-6h848c3.3 0 6 2.7 6 6v448c0 3.3-2.7 6-6 6H266c-3.3 0-6-2.7-6-6z" stroke="#000" stroke-width="3" fill-opacity="0"/><use xlink:href="#a" transform="matrix(1,0,0,1,272.00000000000006,52) translate(0 17.77777777777778)"/><use xlink:href="#b" transform="matrix(1,0,0,1,272.00000000000006,52) translate(66.5432098765432 17.77777777777778)"/><path d="M640 286c0-3.3 2.7-6 6-6h448c3.3 0 6 2.7 6 6v188c0 3.3-2.7 6-6 6H646c-3.3 0-6-2.7-6-6z" stroke="#000" stroke-width="3" fill-opacity="0"/><use xlink:href="#a" transform="matrix(1,0,0,1,652,292) translate(0 17.77777777777778)"/><use xlink:href="#c" transform="matrix(1,0,0,1,652,292) translate(66.5432098765432 17.77777777777778)"/><path d="M640 66c0-3.3 2.7-6 6-6h448c3.3 0 6 2.7 6 6v188c0 3.3-2.7 6-6 6H646c-3.3 0-6-2.7-6-6z" stroke="#000" stroke-width="3" fill-opacity="0"/><use xlink:href="#a" transform="matrix(1,0,0,1,652,72) translate(0 17.77777777777778)"/><use xlink:href="#d" transform="matrix(1,0,0,1,652,72) translate(66.5432098765432 17.77777777777778)"/><path d="M329.12 125.8c.85-3.2 4.23-5.8 7.55-5.8H434c3.3 0 5.3 2.6 4.45 5.8l-7.57 28.4c-.85 3.2-4.23 5.8-7.55 5.8H326c-3.3 0-5.3-2.6-4.45-5.8z" stroke="#000" stroke-width="3" fill="#ffbbb1"/><use xlink:href="#e" transform="matrix(1,0,0,1,325,125) translate(48.83216049382716 19.65277777777778)"/><path d="M437.22 140H561.5" stroke="#000" stroke-width="2" fill="none"/><path d="M437.24 141h-1.3l.55-2h.74"/><path d="M576.76 140l-14.26 4.64v-9.28z" stroke="#000" stroke-width="2"/><path d="M329.12 185.8c.85-3.2 4.23-5.8 7.55-5.8H434c3.3 0 5.3 2.6 4.45 5.8l-7.57 28.4c-.85 3.2-4.23 5.8-7.55 5.8H326c-3.3 0-5.3-2.6-4.45-5.8z" stroke="#000" stroke-width="3" fill="#c1e4f7"/><use xlink:href="#f" transform="matrix(1,0,0,1,325,185) translate(48.83216049382716 19.65277777777778)"/><path d="M437.22 200H561.5" stroke="#000" stroke-width="2" fill="none"/><path d="M437.24 201h-1.3l.55-2h.74"/><path d="M576.76 200l-14.26 4.64v-9.28z" stroke="#000" stroke-width="2"/><path d="M109.12 185.8c.85-3.2 4.23-5.8 7.55-5.8H214c3.3 0 5.3 2.6 4.45 5.8l-7.57 28.4c-.85 3.2-4.23 5.8-7.55 5.8H106c-3.3 0-5.3-2.6-4.45-5.8z" stroke="#000" stroke-width="3" fill="#c1e4f7"/><use xlink:href="#f" transform="matrix(1,0,0,1,105,185) translate(48.83216049382716 19.65277777777778)"/><path d="M217.22 200h88.06" stroke="#000" stroke-width="2" fill="none"/><path d="M217.24 201h-1.3l.55-2h.74"/><path d="M320.54 200l-14.26 4.64v-9.28z" stroke="#000" stroke-width="2"/><path d="M829.12 345.8c.85-3.2 4.23-5.8 7.55-5.8H934c3.3 0 5.3 2.6 4.45 5.8l-7.57 28.4c-.85 3.2-4.23 5.8-7.55 5.8H826c-3.3 0-5.3-2.6-4.45-5.8z" stroke="#000" stroke-width="3" fill="#c1e4f7"/><use xlink:href="#e" transform="matrix(1,0,0,1,825,345) translate(48.83216049382716 19.65277777777778)"/><path d="M109.12 345.8c.85-3.2 4.23-5.8 7.55-5.8H214c3.3 0 5.3 2.6 4.45 5.8l-7.57 28.4c-.85 3.2-4.23 5.8-7.55 5.8H106c-3.3 0-5.3-2.6-4.45-5.8z" stroke="#000" stroke-width="3" fill="#c1e4f7"/><use xlink:href="#e" transform="matrix(1,0,0,1,105,345) translate(48.83216049382716 19.65277777777778)"/><path d="M217.22 360h588.06" stroke="#000" stroke-width="2" fill="none"/><path d="M217.24 361h-1.3l.55-2h.74"/><path d="M820.54 360l-14.26 4.64v-9.28z" stroke="#000" stroke-width="2"/><path d="M829.12 405.8c.85-3.2 4.23-5.8 7.55-5.8H934c3.3 0 5.3 2.6 4.45 5.8l-7.57 28.4c-.85 3.2-4.23 5.8-7.55 5.8H826c-3.3 0-5.3-2.6-4.45-5.8z" stroke="#000" stroke-width="3" fill="#c1e4f7"/><use xlink:href="#f" transform="matrix(1,0,0,1,825,405) translate(48.83216049382716 19.65277777777778)"/><path d="M937.22 420h124.28" stroke="#000" stroke-width="2" fill="none"/><path d="M937.24 421h-1.3l.55-2h.74"/><path d="M1076.76 420l-14.26 4.64v-9.28z" stroke="#000" stroke-width="2"/><path d="M109.12 405.8c.85-3.2 4.23-5.8 7.55-5.8H214c3.3 0 5.3 2.6 4.45 5.8l-7.57 28.4c-.85 3.2-4.23 5.8-7.55 5.8H106c-3.3 0-5.3-2.6-4.45-5.8z" stroke="#000" stroke-width="3" fill="#c1e4f7"/><use xlink:href="#f" transform="matrix(1,0,0,1,105,405) translate(48.83216049382716 19.65277777777778)"/><path d="M217.22 420h588.06" stroke="#000" stroke-width="2" fill="none"/><path d="M217.24 421h-1.3l.55-2h.74"/><path d="M820.54 420l-14.26 4.64v-9.28z" stroke="#000" stroke-width="2"/><path d="M829.12 125.8c.85-3.2 4.23-5.8 7.55-5.8H934c3.3 0 5.3 2.6 4.45 5.8l-7.57 28.4c-.85 3.2-4.23 5.8-7.55 5.8H826c-3.3 0-5.3-2.6-4.45-5.8z" stroke="#000" stroke-width="3" fill="#ffbbb1"/><use xlink:href="#e" transform="matrix(1,0,0,1,825,125) translate(48.83216049382716 19.65277777777778)"/><path d="M937.22 140h124.28" stroke="#000" stroke-width="2" fill="none"/><path d="M937.24 141h-1.3l.55-2h.74"/><path d="M1076.76 140l-14.26 4.64v-9.28z" stroke="#000" stroke-width="2"/><path d="M829.12 185.8c.85-3.2 4.23-5.8 7.55-5.8H934c3.3 0 5.3 2.6 4.45 5.8l-7.57 28.4c-.85 3.2-4.23 5.8-7.55 5.8H826c-3.3 0-5.3-2.6-4.45-5.8z" stroke="#000" stroke-width="3" fill="#ffbbb1"/><use xlink:href="#f" transform="matrix(1,0,0,1,825,185) translate(48.83216049382716 19.65277777777778)"/><path d="M937.22 200h124.28" stroke="#000" stroke-width="2" fill="none"/><path d="M937.24 201h-1.3l.55-2h.74"/><path d="M1076.76 200l-14.26 4.64v-9.28z" stroke="#000" stroke-width="2"/><path d="M937.22 360h128.06" stroke="#000" stroke-width="2" fill="none"/><path d="M937.24 361h-1.3l.55-2h.74"/><path d="M1080.54 360l-14.26 4.64v-9.28z" stroke="#000" stroke-width="2"/><path d="M260 606c0-3.3 2.7-6 6-6h848c3.3 0 6 2.7 6 6v428c0 3.3-2.7 6-6 6H266c-3.3 0-6-2.7-6-6z" stroke="#000" stroke-width="3" fill-opacity="0"/><use xlink:href="#a" transform="matrix(1,0,0,1,272.00000000000006,612) translate(0 17.77777777777778)"/><use xlink:href="#b" transform="matrix(1,0,0,1,272.00000000000006,612) translate(66.5432098765432 17.77777777777778)"/><path d="M640 826c0-3.3 2.7-6 6-6h448c3.3 0 6 2.7 6 6v188c0 3.3-2.7 6-6 6H646c-3.3 0-6-2.7-6-6z" stroke="#000" stroke-width="3" fill-opacity="0"/><use xlink:href="#a" transform="matrix(1,0,0,1,652,832) translate(0 17.77777777777778)"/><use xlink:href="#c" transform="matrix(1,0,0,1,652,832) translate(66.5432098765432 17.77777777777778)"/><path d="M640 626c0-3.3 2.7-6 6-6h448c3.3 0 6 2.7 6 6v168c0 3.3-2.7 6-6 6H646c-3.3 0-6-2.7-6-6z" stroke="#000" stroke-width="3" fill-opacity="0"/><use xlink:href="#a" transform="matrix(1,0,0,1,652,632) translate(0 17.77777777777778)"/><use xlink:href="#d" transform="matrix(1,0,0,1,652,632) translate(66.5432098765432 17.77777777777778)"/><path d="M829.12 745.8c.85-3.2 4.23-5.8 7.55-5.8H934c3.3 0 5.3 2.6 4.45 5.8l-7.57 28.4c-.85 3.2-4.23 5.8-7.55 5.8H826c-3.3 0-5.3-2.6-4.45-5.8z" stroke="#000" stroke-width="3" fill="#c1e4f7"/><use xlink:href="#f" transform="matrix(1,0,0,1,825,745) translate(48.83216049382716 19.65277777777778)"/><path d="M937.22 760h124.28" stroke="#000" stroke-width="2" fill="none"/><path d="M937.24 761h-1.3l.55-2h.74"/><path d="M1076.76 760l-14.26 4.64v-9.28z" stroke="#000" stroke-width="2"/><path d="M109.12 745.8c.85-3.2 4.23-5.8 7.55-5.8H214c3.3 0 5.3 2.6 4.45 5.8l-7.57 28.4c-.85 3.2-4.23 5.8-7.55 5.8H106c-3.3 0-5.3-2.6-4.45-5.8z" stroke="#000" stroke-width="3" fill="#c1e4f7"/><use xlink:href="#f" transform="matrix(1,0,0,1,105,745) translate(48.83216049382716 19.65277777777778)"/><path d="M217.22 760h588.06" stroke="#000" stroke-width="2" fill="none"/><path d="M217.24 761h-1.3l.55-2h.74"/><path d="M820.54 760l-14.26 4.64v-9.28z" stroke="#000" stroke-width="2"/><path d="M829.12 885.8c.85-3.2 4.23-5.8 7.55-5.8H934c3.3 0 5.3 2.6 4.45 5.8l-7.57 28.4c-.85 3.2-4.23 5.8-7.55 5.8H826c-3.3 0-5.3-2.6-4.45-5.8z" stroke="#000" stroke-width="3" fill="#ffbbb1"/><use xlink:href="#e" transform="matrix(1,0,0,1,825,885) translate(48.83216049382716 19.65277777777778)"/><path d="M829.12 945.8c.85-3.2 4.23-5.8 7.55-5.8H934c3.3 0 5.3 2.6 4.45 5.8l-7.57 28.4c-.85 3.2-4.23 5.8-7.55 5.8H826c-3.3 0-5.3-2.6-4.45-5.8z" stroke="#000" stroke-width="3" fill="#c1e4f7"/><use xlink:href="#f" transform="matrix(1,0,0,1,825,945) translate(48.83216049382716 19.65277777777778)"/><path d="M937.22 960h124.28" stroke="#000" stroke-width="2" fill="none"/><path d="M937.24 961h-1.3l.55-2h.74"/><path d="M1076.76 960l-14.26 4.64v-9.28z" stroke="#000" stroke-width="2"/><path d="M109.12 945.8c.85-3.2 4.23-5.8 7.55-5.8H214c3.3 0 5.3 2.6 4.45 5.8l-7.57 28.4c-.85 3.2-4.23 5.8-7.55 5.8H106c-3.3 0-5.3-2.6-4.45-5.8z" stroke="#000" stroke-width="3" fill="#c1e4f7"/><use xlink:href="#f" transform="matrix(1,0,0,1,105,945) translate(48.83216049382716 19.65277777777778)"/><path d="M217.22 960h588.06" stroke="#000" stroke-width="2" fill="none"/><path d="M217.24 961h-1.3l.55-2h.74"/><path d="M820.54 960l-14.26 4.64v-9.28z" stroke="#000" stroke-width="2"/><path d="M829.12 685.8c.85-3.2 4.23-5.8 7.55-5.8H934c3.3 0 5.3 2.6 4.45 5.8l-7.57 28.4c-.85 3.2-4.23 5.8-7.55 5.8H826c-3.3 0-5.3-2.6-4.45-5.8z" stroke="#000" stroke-width="3" fill="#ffbbb1"/><use xlink:href="#e" transform="matrix(1,0,0,1,825,685) translate(48.83216049382716 19.65277777777778)"/><path d="M937.22 700h124.28" stroke="#000" stroke-width="2" fill="none"/><path d="M937.24 701h-1.3l.55-2h.74"/><path d="M1076.76 700l-14.26 4.64v-9.28z" stroke="#000" stroke-width="2"/><path d="M937.22 900h128.06" stroke="#000" stroke-width="2" fill="none"/><path d="M937.24 901h-1.3l.55-2h.74"/><path d="M1080.54 900l-14.26 4.64v-9.28z" stroke="#000" stroke-width="2"/><defs><path fill="#333" d="M240 0l2-218c-23 76-54 145-80 218h-23L58-218 59 0H30v-248h44l77 211c21-75 51-140 76-211h43V0h-30" id="g"/><path fill="#333" d="M100-194c62-1 85 37 85 99 1 63-27 99-86 99S16-35 15-95c0-66 28-99 85-99zM99-20c44 1 53-31 53-75 0-43-8-75-51-75s-53 32-53 75 10 74 51 75" id="h"/><path fill="#333" d="M85-194c31 0 48 13 60 33l-1-100h32l1 261h-30c-2-10 0-23-3-31C134-8 116 4 85 4 32 4 16-35 15-94c0-66 23-100 70-100zm9 24c-40 0-46 34-46 75 0 40 6 74 45 74 42 0 51-32 51-76 0-42-9-74-50-73" id="i"/><path fill="#333" d="M100-194c63 0 86 42 84 106H49c0 40 14 67 53 68 26 1 43-12 49-29l28 8c-11 28-37 45-77 45C44 4 14-33 15-96c1-61 26-98 85-98zm52 81c6-60-76-77-97-28-3 7-6 17-6 28h103" id="j"/><path fill="#333" d="M24 0v-261h32V0H24" id="k"/><g id="a"><use transform="matrix(0.06172839506172839,0,0,0.06172839506172839,0,0)" xlink:href="#g"/><use transform="matrix(0.06172839506172839,0,0,0.06172839506172839,18.456790123456788,0)" xlink:href="#h"/><use transform="matrix(0.06172839506172839,0,0,0.06172839506172839,30.80246913580247,0)" xlink:href="#i"/><use transform="matrix(0.06172839506172839,0,0,0.06172839506172839,43.148148148148145,0)" xlink:href="#j"/><use transform="matrix(0.06172839506172839,0,0,0.06172839506172839,55.49382716049382,0)" xlink:href="#k"/></g><path fill="#333" d="M205 0l-28-72H64L36 0H1l101-248h38L239 0h-34zm-38-99l-47-123c-12 45-31 82-46 123h93" id="l"/><use transform="matrix(0.06172839506172839,0,0,0.06172839506172839,0,0)" xlink:href="#l" id="b"/><path fill="#333" d="M212-179c-10-28-35-45-73-45-59 0-87 40-87 99 0 60 29 101 89 101 43 0 62-24 78-52l27 14C228-24 195 4 139 4 59 4 22-46 18-125c-6-104 99-153 187-111 19 9 31 26 39 46" id="m"/><use transform="matrix(0.06172839506172839,0,0,0.06172839506172839,0,0)" xlink:href="#m" id="c"/><path fill="#333" d="M160-131c35 5 61 23 61 61C221 17 115-2 30 0v-248c76 3 177-17 177 60 0 33-19 50-47 57zm-97-11c50-1 110 9 110-42 0-47-63-36-110-37v79zm0 115c55-2 124 14 124-45 0-56-70-42-124-44v89" id="n"/><use transform="matrix(0.06172839506172839,0,0,0.06172839506172839,0,0)" xlink:href="#n" id="d"/><path fill="#333" d="M141-36C126-15 110 5 73 4 37 3 15-17 15-53c-1-64 63-63 125-63 3-35-9-54-41-54-24 1-41 7-42 31l-33-3c5-37 33-52 76-52 45 0 72 20 72 64v82c-1 20 7 32 28 27v20c-31 9-61-2-59-35zM48-53c0 20 12 33 32 33 41-3 63-29 60-74-43 2-92-5-92 41" id="o"/><use transform="matrix(0.06172839506172839,0,0,0.06172839506172839,0,0)" xlink:href="#o" id="e"/><path fill="#333" d="M115-194c53 0 69 39 70 98 0 66-23 100-70 100C84 3 66-7 56-30L54 0H23l1-261h32v101c10-23 28-34 59-34zm-8 174c40 0 45-34 45-75 0-40-5-75-45-74-42 0-51 32-51 76 0 43 10 73 51 73" id="p"/><use transform="matrix(0.06172839506172839,0,0,0.06172839506172839,0,0)" xlink:href="#p" id="f"/></defs></g></svg>