<svg xmlns="http://www.w3.org/2000/svg" xmlns:xlink="http://www.w3.org/1999/xlink" xmlns:lucid="lucid" width="1095.44" height="871.64"><g transform="translate(1602.56 20)" lucid:page-tab-id="0_0"><path d="M-1696 0H64v1360h-1760z" fill="#fff"/><path d="M-1582.56 48.7c0-3.32 2.7-6 6-6h345.27c3.33 0 6 2.68 6 6V244.8c0 3.3-2.67 6-6 6h-345.26c-3.3 0-6-2.7-6-6z" stroke="#000" stroke-width="3" fill-opacity="0"/><use xlink:href="#a" transform="matrix(1,0,0,1,-1570.56,54.69078123335487) translate(100.4753086419753 80.92361111111111)"/><use xlink:href="#b" transform="matrix(1,0,0,1,-1570.56,54.69078123335487) translate(7.469135802469111 115.59027777777779)"/><use xlink:href="#c" transform="matrix(1,0,0,1,-1570.56,54.69078123335487) translate(118.20987654320986 115.59027777777779)"/><use xlink:href="#d" transform="matrix(1,0,0,1,-1570.56,54.69078123335487) translate(211.21604938271605 115.59027777777779)"/><path d="M-951.84 570.48c0-3.3 2.68-6 6-6h341.76c3.3 0 6 2.7 6 6v204c0 3.3-2.7 6-6 6h-341.76c-3.32 0-6-2.7-6-6z" stroke="#000" stroke-width="3" fill-opacity="0"/><use xlink:href="#e" transform="matrix(1,0,0,1,-939.8416650180675,576.48) translate(98.51543209876543 65.11111111111111)"/><use xlink:href="#f" transform="matrix(1,0,0,1,-939.8416650180675,576.48) translate(23.00308641975309 99.77777777777779)"/><use xlink:href="#g" transform="matrix(1,0,0,1,-939.8416650180675,576.48) translate(156.1327160493827 99.77777777777779)"/><use xlink:href="#h" transform="matrix(1,0,0,1,-939.8416650180675,576.48) translate(258.84876543209873 99.77777777777779)"/><use xlink:href="#i" transform="matrix(1,0,0,1,-939.8416650180675,576.48) translate(64.85185185185185 134.44444444444446)"/><use xlink:href="#j" transform="matrix(1,0,0,1,-939.8416650180675,576.48) translate(127.3641975308642 134.44444444444446)"/><path d="M-1222.8 146.76h441.84c3.3 0 6 2.68 6 6v391.72" stroke="#000" stroke-width="2" fill="none"/><path d="M-1222.76 147.76h-1.03v-2h1.04"/><path d="M-774.96 559.74l-4.64-14.26h9.27z" stroke="#000" stroke-width="2"/><path d="M-954.34 616.58h-321.1c-3.3 0-6-2.68-6-6V270.82" stroke="#000" stroke-width="2" fill="none"/><path d="M-953.34 617.58h-1.03v-2h1.03"/><path d="M-1281.44 255.56l4.64 14.26h-9.27z" stroke="#000" stroke-width="2"/><path d="M-774.96 81.64v462.84M-774.96 81.67v-1.03" stroke="#000" stroke-width="2" fill="none"/><path d="M-774.96 559.74l-4.64-14.26h9.27z" stroke="#000" stroke-width="2"/><path d="M-1339.2 748.46h141.13v83.18h-141.12z" fill-opacity="0"/><path d="M-1333.05 794.75h45.4v-3.06h-45.4zM-1322.93 754.82l-.36-.72c1.02-.62 2.32-.83 3.55-.83 4.56 0 6.8 3.25 6.8 9.4 0 5.35-2.2 15.15-10.67 15.15-3.54 0-4.92-2.8-4.92-5.86 0-5.1 4.02-10.27 9.3-10.27 1.15 0 2.7.4 3.47 1.73.14-.8.25-1.67.25-2.54 0-3.2-1.05-6.55-4.74-6.55-.97 0-1.77.18-2.67.47m6.22 11.06c0-2.35-1.24-3.1-2.22-3.1-3.58 0-6.7 5.38-6.7 10.4 0 1.38.16 3.55 2.43 3.55 2.8 0 4.93-3.6 5.94-7.3.33-1.2.55-2.43.55-3.55M-1304 761.62h1.35c2.28 0 2.1-2.8 3.65-5.1 1.12-1.7 2.68-3.25 5.43-3.25 1.8 0 2.85.86 2.85 2.13 0 1-.76 1.45-1.48 1.45-1 0-1.27-.4-1.27-.9s.33-1.06.33-1.35c0-.18-.1-.3-.54-.3-1.8 0-3.22 1.97-3.98 4.8l-.7 2.52h2.9l-.43 1.37h-2.74l-2.85 11.06c-.24.97-.53 2.35-1.08 3.68-1.2 3-3.14 6.44-6.32 6.44-1.74 0-2.6-.87-2.6-1.95 0-.87.5-1.78 1.55-1.78.97 0 1.34.66 1.34 1.2 0 .7-.6.72-.6 1.16 0 .22.22.33.55.33 2.35 0 3.43-5.7 3.98-7.77l3.14-12.37h-2.78M-1321.8 803.9l-.37-.7c1-.62 2.32-.84 3.54-.84 4.56 0 6.8 3.25 6.8 9.4 0 5.35-2.2 15.15-10.66 15.15-3.54 0-4.9-2.77-4.9-5.85 0-5.1 4-10.27 9.28-10.27 1.16 0 2.7.4 3.47 1.74.15-.8.25-1.66.25-2.53 0-3.2-1.04-6.56-4.73-6.56-.98 0-1.77.2-2.68.47m6.2 11.08c0-2.35-1.22-3.1-2.2-3.1-3.57 0-6.68 5.38-6.68 10.4 0 1.38.14 3.54 2.42 3.54 2.78 0 4.92-3.6 5.93-7.3.32-1.2.54-2.42.54-3.54M-1300.8 816.1l1.63-2.5c.94-1.44 2.2-3.03 4-3.03 1.17 0 1.78.43 1.78 1.2 0 .68-.46 1.5-1.4 1.5-.8 0-.98-.32-1.6-.32-1.07 0-1.47.58-1.98 1.38l-2 3.07c1.1 2.24 1.93 7.12 3.56 7.12.57 0 1.44-.5 2.2-2.06l.5.36c-.43.55-2.05 4.02-4.15 4.02-1.48 0-2.17-1.5-2.64-2.8l-1.46-4.07-2.27 3.54c-1.16 1.78-2.2 3.34-4.23 3.34-1.3 0-1.88-.9-1.88-1.7 0-.58.47-1.34 1.37-1.34.94 0 .8.72 1.7.72.43 0 1.37-.36 2.53-2.13l2.35-3.66-1.18-3.33c-.62-1.72-1.56-3.2-3.55-3.2-.47 0-1 .07-1.37.2l-.1-.64 4.76-1.2c1.6.87 2.28 2.36 2.72 3.55M-1277.26 813.22l-.5-.98c2.8-1.9 4.24-3.78 4.24-5.47 0-.36-.3-.66-.72-.66-.4 0-.92.2-1.48.2-1.9 0-2.97-.86-2.97-2.6 0-1.74 1.24-2.9 3.08-2.9 2.3 0 4.1 1.78 4.1 4.44 0 3.07-2.2 6.3-5.74 7.98M-1254.04 794.75h49.76v-3.06h-49.76zM-1243.92 755.84l-.36-.72c1-.6 2.3-.83 3.54-.83 4.56 0 6.8 3.24 6.8 9.4 0 5.34-2.2 15.14-10.67 15.14-3.55 0-4.93-2.8-4.93-5.86 0-5.1 4.02-10.27 9.3-10.27 1.15 0 2.7.4 3.47 1.75.14-.8.25-1.66.25-2.53 0-3.18-1.06-6.55-4.75-6.55-.97 0-1.77.18-2.67.47m6.22 11.07c0-2.34-1.23-3.1-2.2-3.1-3.6 0-6.7 5.38-6.7 10.4 0 1.38.15 3.55 2.43 3.55 2.78 0 4.9-3.6 5.93-7.3.32-1.2.54-2.42.54-3.54M-1220.82 774.43l.44.47c-1.85 2.17-4.1 3.94-7.16 3.94-3.5 0-4.96-2.82-4.96-5.6 0-5.07 4.38-10.74 9.5-10.74 1.82 0 3.52.97 3.52 2.74 0 1.38-.58 2.53-1.95 2.53-.94 0-1.38-.75-1.38-1.37 0-.87 1.04-1.3 1.04-2.1 0-.43-.36-.76-1.23-.76-4.3 0-6.35 6.48-6.35 9.37 0 3.15 1.77 3.95 3.4 3.95 2.2 0 3.87-1.2 5.13-2.42M-1212.36 769.4c0 .68-.56 1.2-1.23 1.2-.73 0-1.22-.52-1.22-1.2 0-.62.5-1.26 1.23-1.26.68 0 1.24.64 1.24 1.27m-.77 3.2l-2.35 9.32c-.03.15-.03.25-.03.36 0 .18.15.25.33.25.56 0 .7-.3 1.63-1.3l.33.25c-.9 1.15-2.18 2.7-3.43 2.7-.72 0-1.02-.5-1.02-1.2 0-.3 0-.78 2.02-8.63.02-.05.05-.23.05-.3 0-.44-.2-.57-.8-.57-.23 0-.53.05-.7.1l-.1-.4M-1240.6 803.9l-.36-.7c1-.62 2.32-.84 3.54-.84 4.56 0 6.8 3.25 6.8 9.4 0 5.35-2.2 15.15-10.66 15.15-3.55 0-4.92-2.77-4.92-5.85 0-5.1 4-10.27 9.3-10.27 1.15 0 2.7.4 3.46 1.74.15-.8.25-1.66.25-2.53 0-3.2-1.03-6.56-4.72-6.56-.98 0-1.77.2-2.68.47m6.22 11.08c0-2.35-1.23-3.1-2.2-3.1-3.58 0-6.7 5.38-6.7 10.4 0 1.38.15 3.54 2.43 3.54 2.78 0 4.92-3.6 5.93-7.3.32-1.2.54-2.42.54-3.54M-1219.6 816.1l1.64-2.5c.94-1.44 2.2-3.03 4-3.03 1.17 0 1.78.43 1.78 1.2 0 .68-.47 1.5-1.4 1.5-.8 0-1-.32-1.6-.32-1.08 0-1.48.58-2 1.38l-1.98 3.07c1.1 2.24 1.92 7.12 3.55 7.12.56 0 1.43-.5 2.2-2.06l.5.36c-.44.55-2.06 4.02-4.16 4.02-1.48 0-2.17-1.5-2.64-2.8l-1.45-4.07-2.27 3.54c-1.16 1.78-2.2 3.34-4.23 3.34-1.3 0-1.88-.9-1.88-1.7 0-.58.47-1.34 1.37-1.34.94 0 .8.72 1.7.72.43 0 1.37-.36 2.53-2.13l2.35-3.66-1.2-3.33c-.6-1.72-1.55-3.2-3.54-3.2-.47 0-1 .07-1.37.2l-.1-.64 4.77-1.2c1.6.87 2.28 2.36 2.72 3.55"/><path d="M-954.34 721.8h-570.33c-3.3 0-6-2.7-6-6V270.8" stroke="#000" stroke-width="2" fill="none"/><path d="M-953.34 722.8h-1.03v-2h1.03"/><path d="M-1530.67 255.56l4.64 14.26h-9.27z" stroke="#000" stroke-width="2"/><path d="M-1559.2 776.05c0-3.3 2.7-6 6-6h208c3.33 0 6 2.7 6 6v28c0 3.3-2.67 6-6 6h-208c-3.3 0-6-2.7-6-6z" stroke="#000" stroke-opacity="0" stroke-width="3" fill-opacity="0"/><use xlink:href="#k" transform="matrix(1,0,0,1,-1554.1877931121062,775.0493369663943) translate(4.851851851851848 23.111111111111114)"/><use xlink:href="#l" transform="matrix(1,0,0,1,-1554.1877931121062,775.0493369663943) translate(67.3641975308642 23.111111111111114)"/><path d="M-1475.68 542.26c0-3.32 2.7-6 6-6h156c3.33 0 6 2.68 6 6v67.33c0 3.3-2.67 6-6 6h-156c-3.3 0-6-2.7-6-6z" stroke="#000" stroke-opacity="0" stroke-width="3" fill-opacity="0"/><use xlink:href="#m" transform="matrix(1,0,0,1,-1470.68,541.255920326307) translate(21.882716049382715 23.111111111111114)"/><use xlink:href="#n" transform="matrix(1,0,0,1,-1470.68,541.255920326307) translate(58.635802469135804 23.111111111111114)"/><use xlink:href="#o" transform="matrix(1,0,0,1,-1470.68,541.255920326307) translate(32.15432098765432 57.777777777777786)"/><path d="M-1125.64 72.48c0-3.3 2.7-6 6-6h228c3.32 0 6 2.7 6 6v60.42c0 3.3-2.68 6-6 6h-228c-3.3 0-6-2.7-6-6z" stroke="#000" stroke-opacity="0" stroke-width="3" fill-opacity="0"/><use xlink:href="#p" transform="matrix(1,0,0,1,-1120.6373203888056,71.47999999999999) translate(10.839506172839506 23.111111111111114)"/><use xlink:href="#q" transform="matrix(1,0,0,1,-1120.6373203888056,71.47999999999999) translate(103.84567901234568 23.111111111111114)"/><use xlink:href="#r" transform="matrix(1,0,0,1,-1120.6373203888056,71.47999999999999) translate(4.379629629629619 57.777777777777786)"/><use xlink:href="#s" transform="matrix(1,0,0,1,-1120.6373203888056,71.47999999999999) translate(107.01543209876543 57.777777777777786)"/><use xlink:href="#t" transform="matrix(1,0,0,1,-1120.6373203888056,71.47999999999999) translate(139.1141975308642 57.777777777777786)"/><path d="M-767.12 6c0-3.3 2.68-6 6-6h228c3.3 0 6 2.7 6 6v148c0 3.3-2.7 6-6 6h-228c-3.32 0-6-2.7-6-6z" stroke="#000" stroke-opacity="0" stroke-width="3" fill-opacity="0"/><use xlink:href="#u" transform="matrix(1,0,0,1,-762.1216650180675,5) translate(53.20987654320988 65.29861111111111)"/><use xlink:href="#v" transform="matrix(1,0,0,1,-762.1216650180675,5) translate(4.379629629629619 99.96527777777779)"/><use xlink:href="#s" transform="matrix(1,0,0,1,-762.1216650180675,5) translate(107.01543209876543 99.96527777777779)"/><use xlink:href="#t" transform="matrix(1,0,0,1,-762.1216650180675,5) translate(139.1141975308642 99.96527777777779)"/><path d="M-757.04 355.5c0-3.3 2.68-6 6-6h68c3.3 0 6 2.7 6 6v28c0 3.32-2.7 6-6 6h-68c-3.32 0-6-2.68-6-6z" stroke="#000" stroke-opacity="0" stroke-width="3" fill-opacity="0"/><g><use xlink:href="#w" transform="matrix(1,0,0,1,-752.0416650180673,354.50654256414066) translate(-3.478395061728392 23.111111111111114)"/></g><path d="M-666.32 356.97h20v25.08h-20z" fill-opacity="0"/><path d="M-655.24 366.98l1.63-2.5c.94-1.46 2.2-3.06 4.03-3.06 1.16 0 1.78.44 1.78 1.2 0 .7-.47 1.52-1.4 1.52-.8 0-1-.32-1.6-.32-1.1 0-1.5.58-2 1.38l-2 3.1c1.1 2.24 1.92 7.14 3.56 7.14.58 0 1.45-.5 2.2-2.07l.52.37c-.44.54-2.07 4.03-4.18 4.03-1.5 0-2.18-1.5-2.65-2.8l-1.45-4.1-2.3 3.56c-1.15 1.78-2.2 3.34-4.24 3.34-1.3 0-1.9-.9-1.9-1.7 0-.6.48-1.35 1.4-1.35.93 0 .8.72 1.7.72.43 0 1.38-.36 2.54-2.14l2.36-3.67-1.2-3.34c-.62-1.76-1.56-3.25-3.56-3.25-.47 0-1.02.08-1.38.22l-.1-.65 4.8-1.2c1.6.87 2.28 2.36 2.7 3.56"/><path d="M-954.34 616.58h-419.83" stroke="#000" stroke-width="2" fill="none"/><path d="M-953.34 617.58h-1.03v-2h1.03"/><path d="M-1388.44 615.77l14.5-3.82-.52 9.26z" stroke="#000" stroke-width="2"/><path d="M-1271.9 321.3c0-3.3 2.7-6 6-6h348c3.33 0 6 2.7 6 6V452.5c0 3.3-2.67 6-6 6h-348c-3.3 0-6-2.7-6-6z" stroke="#000" stroke-opacity="0" stroke-width="3" fill-opacity="0"/><g><use xlink:href="#x" transform="matrix(1,0,0,1,-1266.8859100345035,320.3102724169283) translate(0 39.861111111111114)"/><use xlink:href="#y" transform="matrix(1,0,0,1,-1266.8859100345035,320.3102724169283) translate(153.91358024691357 39.861111111111114)"/><use xlink:href="#z" transform="matrix(1,0,0,1,-1266.8859100345035,320.3102724169283) translate(0 74.52777777777779)"/><use xlink:href="#v" transform="matrix(1,0,0,1,-1266.8859100345035,320.3102724169283) translate(0 109.19444444444446)"/><use xlink:href="#s" transform="matrix(1,0,0,1,-1266.8859100345035,320.3102724169283) translate(102.63580246913581 109.19444444444446)"/><use xlink:href="#A" transform="matrix(1,0,0,1,-1266.8859100345035,320.3102724169283) translate(134.73456790123458 109.19444444444446)"/></g><path d="M-1143 336.4h17.36v30.04H-1143z" fill-opacity="0"/><path d="M-1136 345.26h1.04c1.78 0 1.64-2.17 2.85-3.98.86-1.32 2.08-2.54 4.22-2.54 1.4 0 2.23.68 2.23 1.67 0 .8-.6 1.14-1.16 1.14-.8 0-1-.3-1-.7 0-.4.26-.83.26-1.05 0-.15-.1-.24-.42-.24-1.42 0-2.52 1.52-3.1 3.73l-.54 1.96h2.25l-.34 1.07h-2.13l-2.23 8.63c-.2.77-.42 1.84-.84 2.88-.93 2.34-2.46 5.02-4.94 5.02-1.35 0-2.03-.67-2.03-1.52 0-.68.4-1.38 1.2-1.38.77 0 1.06.5 1.06.93 0 .52-.47.55-.47.9 0 .16.17.24.43.24 1.83 0 2.68-4.45 3.1-6.06l2.45-9.65h-2.16"/><path d="M-1116.56 374.83h26.9v29.8h-26.9z" fill-opacity="0"/><path d="M-1103.3 391.37l.45.48c-1.87 2.2-4.13 3.98-7.24 3.98-3.54 0-5-2.85-5-5.67 0-5.1 4.42-10.85 9.6-10.85 1.84 0 3.56 1 3.56 2.8 0 1.38-.6 2.55-1.97 2.55-.96 0-1.4-.77-1.4-1.4 0-.87 1.06-1.3 1.06-2.1 0-.45-.37-.78-1.25-.78-4.33 0-6.42 6.54-6.42 9.47 0 3.17 1.8 3.98 3.44 3.98 2.23 0 3.9-1.2 5.2-2.45M-1094.75 386.3c0 .68-.57 1.2-1.24 1.2-.74 0-1.23-.52-1.23-1.2 0-.64.5-1.3 1.24-1.3.68 0 1.25.66 1.25 1.3m-.78 3.24l-2.37 9.4c-.03.16-.03.26-.03.36 0 .18.15.26.34.26.57 0 .73-.3 1.66-1.32l.34.26c-.9 1.16-2.2 2.7-3.47 2.7-.72 0-1.03-.48-1.03-1.17 0-.3 0-.8 2.04-8.74.03-.06.05-.24.05-.32 0-.44-.2-.57-.8-.57-.24 0-.55.07-.73.12l-.08-.42"/><defs><path d="M140-251c80 0 125 45 125 126S219 4 139 4C58 4 15-44 15-125s44-126 125-126zm-1 214c52 0 73-35 73-88 0-50-21-86-72-86-52 0-73 35-73 86s22 88 72 88" id="B"/><path d="M135-194c53 0 70 44 70 98 0 56-19 98-73 100-31 1-45-17-59-34 3 33 2 69 2 105H25l-1-265h48c2 10 0 23 3 31 11-24 29-35 60-35zM114-30c33 0 39-31 40-66 0-38-9-64-40-64-56 0-55 130 0 130" id="C"/><path d="M115-3C79 11 28 4 28-45v-112H4v-33h27l15-45h31v45h36v33H77v99c-1 23 16 31 38 25v30" id="D"/><path d="M25-224v-37h50v37H25zM25 0v-190h50V0H25" id="E"/><path d="M220-157c-53 9-28 100-34 157h-49v-107c1-27-5-49-29-50C55-147 81-57 75 0H25l-1-190h47c2 12-1 28 3 38 10-53 101-56 108 0 13-22 24-43 59-42 82 1 51 116 57 194h-49v-107c-1-25-5-48-29-50" id="F"/><path d="M12 0v-35l95-120H19v-35h142v35L67-36h103V0H12" id="G"/><path d="M185-48c-13 30-37 53-82 52C43 2 14-33 14-96s30-98 90-98c62 0 83 45 84 108H66c0 31 8 55 39 56 18 0 30-7 34-22zm-45-69c5-46-57-63-70-21-2 6-4 13-4 21h74" id="H"/><path d="M135-150c-39-12-60 13-60 57V0H25l-1-190h47c2 13-1 29 3 40 6-28 27-53 61-41v41" id="I"/><g id="a"><use transform="matrix(0.08024691358024691,0,0,0.08024691358024691,0,0)" xlink:href="#B"/><use transform="matrix(0.08024691358024691,0,0,0.08024691358024691,22.469135802469136,0)" xlink:href="#C"/><use transform="matrix(0.08024691358024691,0,0,0.08024691358024691,40.04320987654321,0)" xlink:href="#D"/><use transform="matrix(0.08024691358024691,0,0,0.08024691358024691,49.5925925925926,0)" xlink:href="#E"/><use transform="matrix(0.08024691358024691,0,0,0.08024691358024691,57.61728395061728,0)" xlink:href="#F"/><use transform="matrix(0.08024691358024691,0,0,0.08024691358024691,83.2962962962963,0)" xlink:href="#E"/><use transform="matrix(0.08024691358024691,0,0,0.08024691358024691,91.320987654321,0)" xlink:href="#G"/><use transform="matrix(0.08024691358024691,0,0,0.08024691358024691,105.76543209876544,0)" xlink:href="#H"/><use transform="matrix(0.08024691358024691,0,0,0.08024691358024691,121.81481481481482,0)" xlink:href="#I"/></g><path fill="#00629b" d="M84 4C-5 8 30-112 23-190h32v120c0 31 7 50 39 49 72-2 45-101 50-169h31l1 190h-30c-1-10 1-25-2-33-11 22-28 36-60 37" id="J"/><path fill="#00629b" d="M115-194c55 1 70 41 70 98S169 2 115 4C84 4 66-9 55-30l1 105H24l-1-265h31l2 30c10-21 28-34 59-34zm-8 174c40 0 45-34 45-75s-6-73-45-74c-42 0-51 32-51 76 0 43 10 73 51 73" id="K"/><path fill="#00629b" d="M85-194c31 0 48 13 60 33l-1-100h32l1 261h-30c-2-10 0-23-3-31C134-8 116 4 85 4 32 4 16-35 15-94c0-66 23-100 70-100zm9 24c-40 0-46 34-46 75 0 40 6 74 45 74 42 0 51-32 51-76 0-42-9-74-50-73" id="L"/><path fill="#00629b" d="M141-36C126-15 110 5 73 4 37 3 15-17 15-53c-1-64 63-63 125-63 3-35-9-54-41-54-24 1-41 7-42 31l-33-3c5-37 33-52 76-52 45 0 72 20 72 64v82c-1 20 7 32 28 27v20c-31 9-61-2-59-35zM48-53c0 20 12 33 32 33 41-3 63-29 60-74-43 2-92-5-92 41" id="M"/><path fill="#00629b" d="M59-47c-2 24 18 29 38 22v24C64 9 27 4 27-40v-127H5v-23h24l9-43h21v43h35v23H59v120" id="N"/><path fill="#00629b" d="M100-194c63 0 86 42 84 106H49c0 40 14 67 53 68 26 1 43-12 49-29l28 8c-11 28-37 45-77 45C44 4 14-33 15-96c1-61 26-98 85-98zm52 81c6-60-76-77-97-28-3 7-6 17-6 28h103" id="O"/><path fill="#00629b" d="M135-143c-3-34-86-38-87 0 15 53 115 12 119 90S17 21 10-45l28-5c4 36 97 45 98 0-10-56-113-15-118-90-4-57 82-63 122-42 12 7 21 19 24 35" id="P"/><g id="b"><use transform="matrix(0.08024691358024691,0,0,0.08024691358024691,0,0)" xlink:href="#J"/><use transform="matrix(0.08024691358024691,0,0,0.08024691358024691,16.049382716049383,0)" xlink:href="#K"/><use transform="matrix(0.08024691358024691,0,0,0.08024691358024691,32.098765432098766,0)" xlink:href="#L"/><use transform="matrix(0.08024691358024691,0,0,0.08024691358024691,48.14814814814815,0)" xlink:href="#M"/><use transform="matrix(0.08024691358024691,0,0,0.08024691358024691,64.19753086419753,0)" xlink:href="#N"/><use transform="matrix(0.08024691358024691,0,0,0.08024691358024691,72.22222222222223,0)" xlink:href="#O"/><use transform="matrix(0.08024691358024691,0,0,0.08024691358024691,88.2716049382716,0)" xlink:href="#P"/></g><path fill="#00629b" d="M24-231v-30h32v30H24zM24 0v-190h32V0H24" id="Q"/><path fill="#00629b" d="M177-190C167-65 218 103 67 71c-23-6-38-20-44-43l32-5c15 47 100 32 89-28v-30C133-14 115 1 83 1 29 1 15-40 15-95c0-56 16-97 71-98 29-1 48 16 59 35 1-10 0-23 2-32h30zM94-22c36 0 50-32 50-73 0-42-14-75-50-75-39 0-46 34-46 75s6 73 46 73" id="R"/><path fill="#00629b" d="M117-194c89-4 53 116 60 194h-32v-121c0-31-8-49-39-48C34-167 62-67 57 0H25l-1-190h30c1 10-1 24 2 32 11-22 29-35 61-36" id="S"/><g id="c"><use transform="matrix(0.08024691358024691,0,0,0.08024691358024691,0,0)" xlink:href="#L"/><use transform="matrix(0.08024691358024691,0,0,0.08024691358024691,16.049382716049383,0)" xlink:href="#O"/><use transform="matrix(0.08024691358024691,0,0,0.08024691358024691,32.098765432098766,0)" xlink:href="#P"/><use transform="matrix(0.08024691358024691,0,0,0.08024691358024691,46.54320987654321,0)" xlink:href="#Q"/><use transform="matrix(0.08024691358024691,0,0,0.08024691358024691,52.882716049382715,0)" xlink:href="#R"/><use transform="matrix(0.08024691358024691,0,0,0.08024691358024691,68.9320987654321,0)" xlink:href="#S"/></g><path fill="#00629b" d="M108 0H70L1-190h34L89-25l56-165h34" id="T"/><path fill="#00629b" d="M114-163C36-179 61-72 57 0H25l-1-190h30c1 12-1 29 2 39 6-27 23-49 58-41v29" id="U"/><path fill="#00629b" d="M115-194c53 0 69 39 70 98 0 66-23 100-70 100C84 3 66-7 56-30L54 0H23l1-261h32v101c10-23 28-34 59-34zm-8 174c40 0 45-34 45-75 0-40-5-75-45-74-42 0-51 32-51 76 0 43 10 73 51 73" id="V"/><path fill="#00629b" d="M24 0v-261h32V0H24" id="W"/><g id="d"><use transform="matrix(0.08024691358024691,0,0,0.08024691358024691,0,0)" xlink:href="#T"/><use transform="matrix(0.08024691358024691,0,0,0.08024691358024691,14.444444444444443,0)" xlink:href="#M"/><use transform="matrix(0.08024691358024691,0,0,0.08024691358024691,30.493827160493826,0)" xlink:href="#U"/><use transform="matrix(0.08024691358024691,0,0,0.08024691358024691,40.04320987654321,0)" xlink:href="#Q"/><use transform="matrix(0.08024691358024691,0,0,0.08024691358024691,46.382716049382715,0)" xlink:href="#M"/><use transform="matrix(0.08024691358024691,0,0,0.08024691358024691,62.4320987654321,0)" xlink:href="#V"/><use transform="matrix(0.08024691358024691,0,0,0.08024691358024691,78.48148148148148,0)" xlink:href="#W"/><use transform="matrix(0.08024691358024691,0,0,0.08024691358024691,84.82098765432099,0)" xlink:href="#O"/><use transform="matrix(0.08024691358024691,0,0,0.08024691358024691,100.87037037037037,0)" xlink:href="#P"/></g><path d="M169-182c-1-43-94-46-97-3 18 66 151 10 154 114 3 95-165 93-204 36-6-8-10-19-12-30l50-8c3 46 112 56 116 5-17-69-150-10-154-114-4-87 153-88 188-35 5 8 8 18 10 28" id="X"/><path d="M85 4C-2 5 27-109 22-190h50c7 57-23 150 33 157 60-5 35-97 40-157h50l1 190h-47c-2-12 1-28-3-38-12 25-28 42-61 42" id="Y"/><path d="M25 0v-261h50V0H25" id="Z"/><path d="M133-34C117-15 103 5 69 4 32 3 11-16 11-54c-1-60 55-63 116-61 1-26-3-47-28-47-18 1-26 9-28 27l-52-2c7-38 36-58 82-57s74 22 75 68l1 82c-1 14 12 18 25 15v27c-30 8-71 5-69-32zm-48 3c29 0 43-24 42-57-32 0-66-3-65 30 0 17 8 27 23 27" id="aa"/><path d="M110-194c64 0 96 36 96 99 0 64-35 99-97 99-61 0-95-36-95-99 0-62 34-99 96-99zm-1 164c35 0 45-28 45-65 0-40-10-65-43-65-34 0-45 26-45 65 0 36 10 65 43 65" id="ab"/><g id="e"><use transform="matrix(0.08024691358024691,0,0,0.08024691358024691,0,0)" xlink:href="#X"/><use transform="matrix(0.08024691358024691,0,0,0.08024691358024691,19.25925925925926,0)" xlink:href="#E"/><use transform="matrix(0.08024691358024691,0,0,0.08024691358024691,27.28395061728395,0)" xlink:href="#F"/><use transform="matrix(0.08024691358024691,0,0,0.08024691358024691,52.96296296296296,0)" xlink:href="#Y"/><use transform="matrix(0.08024691358024691,0,0,0.08024691358024691,70.53703703703704,0)" xlink:href="#Z"/><use transform="matrix(0.08024691358024691,0,0,0.08024691358024691,78.56172839506173,0)" xlink:href="#aa"/><use transform="matrix(0.08024691358024691,0,0,0.08024691358024691,94.6111111111111,0)" xlink:href="#D"/><use transform="matrix(0.08024691358024691,0,0,0.08024691358024691,104.1604938271605,0)" xlink:href="#ab"/><use transform="matrix(0.08024691358024691,0,0,0.08024691358024691,121.73456790123456,0)" xlink:href="#I"/></g><path fill="#00629b" d="M96-169c-40 0-48 33-48 73s9 75 48 75c24 0 41-14 43-38l32 2c-6 37-31 61-74 61-59 0-76-41-82-99-10-93 101-131 147-64 4 7 5 14 7 22l-32 3c-4-21-16-35-41-35" id="ac"/><path fill="#00629b" d="M100-194c62-1 85 37 85 99 1 63-27 99-86 99S16-35 15-95c0-66 28-99 85-99zM99-20c44 1 53-31 53-75 0-43-8-75-51-75s-53 32-53 75 10 74 51 75" id="ad"/><path fill="#00629b" d="M210-169c-67 3-38 105-44 169h-31v-121c0-29-5-50-35-48C34-165 62-65 56 0H25l-1-190h30c1 10-1 24 2 32 10-44 99-50 107 0 11-21 27-35 58-36 85-2 47 119 55 194h-31v-121c0-29-5-49-35-48" id="ae"/><g id="f"><use transform="matrix(0.08024691358024691,0,0,0.08024691358024691,0,0)" xlink:href="#ac"/><use transform="matrix(0.08024691358024691,0,0,0.08024691358024691,14.444444444444443,0)" xlink:href="#ad"/><use transform="matrix(0.08024691358024691,0,0,0.08024691358024691,30.493827160493826,0)" xlink:href="#ae"/><use transform="matrix(0.08024691358024691,0,0,0.08024691358024691,54.48765432098765,0)" xlink:href="#K"/><use transform="matrix(0.08024691358024691,0,0,0.08024691358024691,70.53703703703704,0)" xlink:href="#J"/><use transform="matrix(0.08024691358024691,0,0,0.08024691358024691,86.58641975308642,0)" xlink:href="#N"/><use transform="matrix(0.08024691358024691,0,0,0.08024691358024691,94.6111111111111,0)" xlink:href="#O"/><use transform="matrix(0.08024691358024691,0,0,0.08024691358024691,110.6604938271605,0)" xlink:href="#P"/></g><g id="g"><use transform="matrix(0.08024691358024691,0,0,0.08024691358024691,0,0)" xlink:href="#ad"/><use transform="matrix(0.08024691358024691,0,0,0.08024691358024691,16.049382716049383,0)" xlink:href="#J"/><use transform="matrix(0.08024691358024691,0,0,0.08024691358024691,32.098765432098766,0)" xlink:href="#N"/><use transform="matrix(0.08024691358024691,0,0,0.08024691358024691,40.123456790123456,0)" xlink:href="#K"/><use transform="matrix(0.08024691358024691,0,0,0.08024691358024691,56.172839506172835,0)" xlink:href="#J"/><use transform="matrix(0.08024691358024691,0,0,0.08024691358024691,72.22222222222221,0)" xlink:href="#N"/><use transform="matrix(0.08024691358024691,0,0,0.08024691358024691,80.24691358024691,0)" xlink:href="#P"/></g><g id="h"><use transform="matrix(0.08024691358024691,0,0,0.08024691358024691,0,0)" xlink:href="#M"/><use transform="matrix(0.08024691358024691,0,0,0.08024691358024691,16.049382716049383,0)" xlink:href="#S"/><use transform="matrix(0.08024691358024691,0,0,0.08024691358024691,32.098765432098766,0)" xlink:href="#L"/></g><g id="i"><use transform="matrix(0.08024691358024691,0,0,0.08024691358024691,0,0)" xlink:href="#N"/><use transform="matrix(0.08024691358024691,0,0,0.08024691358024691,8.024691358024691,0)" xlink:href="#ad"/><use transform="matrix(0.08024691358024691,0,0,0.08024691358024691,24.074074074074076,0)" xlink:href="#N"/><use transform="matrix(0.08024691358024691,0,0,0.08024691358024691,32.098765432098766,0)" xlink:href="#M"/><use transform="matrix(0.08024691358024691,0,0,0.08024691358024691,48.14814814814815,0)" xlink:href="#W"/></g><g id="j"><use transform="matrix(0.08024691358024691,0,0,0.08024691358024691,0,0)" xlink:href="#L"/><use transform="matrix(0.08024691358024691,0,0,0.08024691358024691,16.049382716049383,0)" xlink:href="#O"/><use transform="matrix(0.08024691358024691,0,0,0.08024691358024691,32.098765432098766,0)" xlink:href="#U"/><use transform="matrix(0.08024691358024691,0,0,0.08024691358024691,41.64814814814815,0)" xlink:href="#Q"/><use transform="matrix(0.08024691358024691,0,0,0.08024691358024691,47.98765432098766,0)" xlink:href="#T"/><use transform="matrix(0.08024691358024691,0,0,0.08024691358024691,62.4320987654321,0)" xlink:href="#M"/><use transform="matrix(0.08024691358024691,0,0,0.08024691358024691,78.48148148148148,0)" xlink:href="#N"/><use transform="matrix(0.08024691358024691,0,0,0.08024691358024691,86.50617283950619,0)" xlink:href="#Q"/><use transform="matrix(0.08024691358024691,0,0,0.08024691358024691,92.8456790123457,0)" xlink:href="#T"/><use transform="matrix(0.08024691358024691,0,0,0.08024691358024691,107.29012345679014,0)" xlink:href="#O"/><use transform="matrix(0.08024691358024691,0,0,0.08024691358024691,123.3395061728395,0)" xlink:href="#P"/></g><path d="M59-47c-2 24 18 29 38 22v24C64 9 27 4 27-40v-127H5v-23h24l9-43h21v43h35v23H59v120" id="af"/><path d="M100-194c62-1 85 37 85 99 1 63-27 99-86 99S16-35 15-95c0-66 28-99 85-99zM99-20c44 1 53-31 53-75 0-43-8-75-51-75s-53 32-53 75 10 74 51 75" id="ag"/><path d="M141-36C126-15 110 5 73 4 37 3 15-17 15-53c-1-64 63-63 125-63 3-35-9-54-41-54-24 1-41 7-42 31l-33-3c5-37 33-52 76-52 45 0 72 20 72 64v82c-1 20 7 32 28 27v20c-31 9-61-2-59-35zM48-53c0 20 12 33 32 33 41-3 63-29 60-74-43 2-92-5-92 41" id="ah"/><path d="M24 0v-261h32V0H24" id="ai"/><g id="k"><use transform="matrix(0.08024691358024691,0,0,0.08024691358024691,0,0)" xlink:href="#af"/><use transform="matrix(0.08024691358024691,0,0,0.08024691358024691,8.024691358024691,0)" xlink:href="#ag"/><use transform="matrix(0.08024691358024691,0,0,0.08024691358024691,24.074074074074076,0)" xlink:href="#af"/><use transform="matrix(0.08024691358024691,0,0,0.08024691358024691,32.098765432098766,0)" xlink:href="#ah"/><use transform="matrix(0.08024691358024691,0,0,0.08024691358024691,48.14814814814815,0)" xlink:href="#ai"/></g><path d="M85-194c31 0 48 13 60 33l-1-100h32l1 261h-30c-2-10 0-23-3-31C134-8 116 4 85 4 32 4 16-35 15-94c0-66 23-100 70-100zm9 24c-40 0-46 34-46 75 0 40 6 74 45 74 42 0 51-32 51-76 0-42-9-74-50-73" id="aj"/><path d="M100-194c63 0 86 42 84 106H49c0 40 14 67 53 68 26 1 43-12 49-29l28 8c-11 28-37 45-77 45C44 4 14-33 15-96c1-61 26-98 85-98zm52 81c6-60-76-77-97-28-3 7-6 17-6 28h103" id="ak"/><path d="M114-163C36-179 61-72 57 0H25l-1-190h30c1 12-1 29 2 39 6-27 23-49 58-41v29" id="al"/><path d="M24-231v-30h32v30H24zM24 0v-190h32V0H24" id="am"/><path d="M108 0H70L1-190h34L89-25l56-165h34" id="an"/><path d="M135-143c-3-34-86-38-87 0 15 53 115 12 119 90S17 21 10-45l28-5c4 36 97 45 98 0-10-56-113-15-118-90-4-57 82-63 122-42 12 7 21 19 24 35" id="ao"/><g id="l"><use transform="matrix(0.08024691358024691,0,0,0.08024691358024691,0,0)" xlink:href="#aj"/><use transform="matrix(0.08024691358024691,0,0,0.08024691358024691,16.049382716049383,0)" xlink:href="#ak"/><use transform="matrix(0.08024691358024691,0,0,0.08024691358024691,32.098765432098766,0)" xlink:href="#al"/><use transform="matrix(0.08024691358024691,0,0,0.08024691358024691,41.64814814814815,0)" xlink:href="#am"/><use transform="matrix(0.08024691358024691,0,0,0.08024691358024691,47.98765432098766,0)" xlink:href="#an"/><use transform="matrix(0.08024691358024691,0,0,0.08024691358024691,62.4320987654321,0)" xlink:href="#ah"/><use transform="matrix(0.08024691358024691,0,0,0.08024691358024691,78.48148148148148,0)" xlink:href="#af"/><use transform="matrix(0.08024691358024691,0,0,0.08024691358024691,86.50617283950619,0)" xlink:href="#am"/><use transform="matrix(0.08024691358024691,0,0,0.08024691358024691,92.8456790123457,0)" xlink:href="#an"/><use transform="matrix(0.08024691358024691,0,0,0.08024691358024691,107.29012345679014,0)" xlink:href="#ak"/><use transform="matrix(0.08024691358024691,0,0,0.08024691358024691,123.3395061728395,0)" xlink:href="#ao"/></g><g id="m"><use transform="matrix(0.08024691358024691,0,0,0.08024691358024691,0,0)" xlink:href="#ah"/><use transform="matrix(0.08024691358024691,0,0,0.08024691358024691,16.049382716049383,0)" xlink:href="#ai"/><use transform="matrix(0.08024691358024691,0,0,0.08024691358024691,22.38888888888889,0)" xlink:href="#ai"/></g><path d="M210-169c-67 3-38 105-44 169h-31v-121c0-29-5-50-35-48C34-165 62-65 56 0H25l-1-190h30c1 10-1 24 2 32 10-44 99-50 107 0 11-21 27-35 58-36 85-2 47 119 55 194h-31v-121c0-29-5-49-35-48" id="ap"/><g id="n"><use transform="matrix(0.08024691358024691,0,0,0.08024691358024691,0,0)" xlink:href="#ap"/><use transform="matrix(0.08024691358024691,0,0,0.08024691358024691,23.993827160493826,0)" xlink:href="#ag"/><use transform="matrix(0.08024691358024691,0,0,0.08024691358024691,40.04320987654321,0)" xlink:href="#aj"/><use transform="matrix(0.08024691358024691,0,0,0.08024691358024691,56.092592592592595,0)" xlink:href="#ak"/><use transform="matrix(0.08024691358024691,0,0,0.08024691358024691,72.14197530864197,0)" xlink:href="#ai"/></g><path d="M84 4C-5 8 30-112 23-190h32v120c0 31 7 50 39 49 72-2 45-101 50-169h31l1 190h-30c-1-10 1-25-2-33-11 22-28 36-60 37" id="aq"/><path d="M115-194c55 1 70 41 70 98S169 2 115 4C84 4 66-9 55-30l1 105H24l-1-265h31l2 30c10-21 28-34 59-34zm-8 174c40 0 45-34 45-75s-6-73-45-74c-42 0-51 32-51 76 0 43 10 73 51 73" id="ar"/><g id="o"><use transform="matrix(0.08024691358024691,0,0,0.08024691358024691,0,0)" xlink:href="#ag"/><use transform="matrix(0.08024691358024691,0,0,0.08024691358024691,16.049382716049383,0)" xlink:href="#aq"/><use transform="matrix(0.08024691358024691,0,0,0.08024691358024691,32.098765432098766,0)" xlink:href="#af"/><use transform="matrix(0.08024691358024691,0,0,0.08024691358024691,40.123456790123456,0)" xlink:href="#ar"/><use transform="matrix(0.08024691358024691,0,0,0.08024691358024691,56.172839506172835,0)" xlink:href="#aq"/><use transform="matrix(0.08024691358024691,0,0,0.08024691358024691,72.22222222222221,0)" xlink:href="#af"/><use transform="matrix(0.08024691358024691,0,0,0.08024691358024691,80.24691358024691,0)" xlink:href="#ao"/></g><path d="M177-190C167-65 218 103 67 71c-23-6-38-20-44-43l32-5c15 47 100 32 89-28v-30C133-14 115 1 83 1 29 1 15-40 15-95c0-56 16-97 71-98 29-1 48 16 59 35 1-10 0-23 2-32h30zM94-22c36 0 50-32 50-73 0-42-14-75-50-75-39 0-46 34-46 75s6 73 46 73" id="as"/><path d="M117-194c89-4 53 116 60 194h-32v-121c0-31-8-49-39-48C34-167 62-67 57 0H25l-1-190h30c1 10-1 24 2 32 11-22 29-35 61-36" id="at"/><g id="p"><use transform="matrix(0.08024691358024691,0,0,0.08024691358024691,0,0)" xlink:href="#aj"/><use transform="matrix(0.08024691358024691,0,0,0.08024691358024691,16.049382716049383,0)" xlink:href="#ak"/><use transform="matrix(0.08024691358024691,0,0,0.08024691358024691,32.098765432098766,0)" xlink:href="#ao"/><use transform="matrix(0.08024691358024691,0,0,0.08024691358024691,46.54320987654321,0)" xlink:href="#am"/><use transform="matrix(0.08024691358024691,0,0,0.08024691358024691,52.882716049382715,0)" xlink:href="#as"/><use transform="matrix(0.08024691358024691,0,0,0.08024691358024691,68.9320987654321,0)" xlink:href="#at"/></g><path d="M115-194c53 0 69 39 70 98 0 66-23 100-70 100C84 3 66-7 56-30L54 0H23l1-261h32v101c10-23 28-34 59-34zm-8 174c40 0 45-34 45-75 0-40-5-75-45-74-42 0-51 32-51 76 0 43 10 73 51 73" id="au"/><g id="q"><use transform="matrix(0.08024691358024691,0,0,0.08024691358024691,0,0)" xlink:href="#an"/><use transform="matrix(0.08024691358024691,0,0,0.08024691358024691,14.444444444444443,0)" xlink:href="#ah"/><use transform="matrix(0.08024691358024691,0,0,0.08024691358024691,30.493827160493826,0)" xlink:href="#al"/><use transform="matrix(0.08024691358024691,0,0,0.08024691358024691,40.04320987654321,0)" xlink:href="#am"/><use transform="matrix(0.08024691358024691,0,0,0.08024691358024691,46.382716049382715,0)" xlink:href="#ah"/><use transform="matrix(0.08024691358024691,0,0,0.08024691358024691,62.4320987654321,0)" xlink:href="#au"/><use transform="matrix(0.08024691358024691,0,0,0.08024691358024691,78.48148148148148,0)" xlink:href="#ai"/><use transform="matrix(0.08024691358024691,0,0,0.08024691358024691,84.82098765432099,0)" xlink:href="#ak"/><use transform="matrix(0.08024691358024691,0,0,0.08024691358024691,100.87037037037037,0)" xlink:href="#ao"/></g><path d="M87 75C49 33 22-17 22-94c0-76 28-126 65-167h31c-38 41-64 92-64 168S80 34 118 75H87" id="av"/><g id="r"><use transform="matrix(0.08024691358024691,0,0,0.08024691358024691,0,0)" xlink:href="#av"/><use transform="matrix(0.08024691358024691,0,0,0.08024691358024691,9.549382716049383,0)" xlink:href="#ao"/><use transform="matrix(0.08024691358024691,0,0,0.08024691358024691,23.993827160493826,0)" xlink:href="#aq"/><use transform="matrix(0.08024691358024691,0,0,0.08024691358024691,40.04320987654321,0)" xlink:href="#au"/><use transform="matrix(0.08024691358024691,0,0,0.08024691358024691,56.092592592592595,0)" xlink:href="#ao"/><use transform="matrix(0.08024691358024691,0,0,0.08024691358024691,70.53703703703704,0)" xlink:href="#ak"/><use transform="matrix(0.08024691358024691,0,0,0.08024691358024691,86.58641975308642,0)" xlink:href="#af"/></g><path d="M101-234c-31-9-42 10-38 44h38v23H63V0H32v-167H5v-23h27c-7-52 17-82 69-68v24" id="aw"/><g id="s"><use transform="matrix(0.08024691358024691,0,0,0.08024691358024691,0,0)" xlink:href="#ag"/><use transform="matrix(0.08024691358024691,0,0,0.08024691358024691,16.049382716049383,0)" xlink:href="#aw"/></g><path d="M33-261c38 41 65 92 65 168S71 34 33 75H2C39 34 66-17 66-93S39-220 2-261h31" id="ax"/><g id="t"><use transform="matrix(0.08024691358024691,0,0,0.08024691358024691,0,0)" xlink:href="#am"/><use transform="matrix(0.08024691358024691,0,0,0.08024691358024691,6.3395061728395055,0)" xlink:href="#at"/><use transform="matrix(0.08024691358024691,0,0,0.08024691358024691,22.38888888888889,0)" xlink:href="#ar"/><use transform="matrix(0.08024691358024691,0,0,0.08024691358024691,38.43827160493827,0)" xlink:href="#aq"/><use transform="matrix(0.08024691358024691,0,0,0.08024691358024691,54.48765432098766,0)" xlink:href="#af"/><use transform="matrix(0.08024691358024691,0,0,0.08024691358024691,62.51234567901235,0)" xlink:href="#ao"/><use transform="matrix(0.08024691358024691,0,0,0.08024691358024691,76.95679012345678,0)" xlink:href="#ax"/></g><path d="M96-169c-40 0-48 33-48 73s9 75 48 75c24 0 41-14 43-38l32 2c-6 37-31 61-74 61-59 0-76-41-82-99-10-93 101-131 147-64 4 7 5 14 7 22l-32 3c-4-21-16-35-41-35" id="ay"/><g id="u"><use transform="matrix(0.08024691358024691,0,0,0.08024691358024691,0,0)" xlink:href="#ay"/><use transform="matrix(0.08024691358024691,0,0,0.08024691358024691,14.444444444444443,0)" xlink:href="#ag"/><use transform="matrix(0.08024691358024691,0,0,0.08024691358024691,30.493827160493826,0)" xlink:href="#at"/><use transform="matrix(0.08024691358024691,0,0,0.08024691358024691,46.54320987654321,0)" xlink:href="#ao"/><use transform="matrix(0.08024691358024691,0,0,0.08024691358024691,60.98765432098765,0)" xlink:href="#af"/><use transform="matrix(0.08024691358024691,0,0,0.08024691358024691,69.01234567901234,0)" xlink:href="#ah"/><use transform="matrix(0.08024691358024691,0,0,0.08024691358024691,85.06172839506172,0)" xlink:href="#at"/><use transform="matrix(0.08024691358024691,0,0,0.08024691358024691,101.1111111111111,0)" xlink:href="#af"/><use transform="matrix(0.08024691358024691,0,0,0.08024691358024691,109.1358024691358,0)" xlink:href="#ao"/></g><g id="v"><use transform="matrix(0.08024691358024691,0,0,0.08024691358024691,0,0)" xlink:href="#av"/><use transform="matrix(0.08024691358024691,0,0,0.08024691358024691,9.549382716049383,0)" xlink:href="#ao"/><use transform="matrix(0.08024691358024691,0,0,0.08024691358024691,23.993827160493826,0)" xlink:href="#aq"/><use transform="matrix(0.08024691358024691,0,0,0.08024691358024691,40.04320987654321,0)" xlink:href="#au"/><use transform="matrix(0.08024691358024691,0,0,0.08024691358024691,56.092592592592595,0)" xlink:href="#ao"/><use transform="matrix(0.08024691358024691,0,0,0.08024691358024691,70.53703703703704,0)" xlink:href="#ak"/><use transform="matrix(0.08024691358024691,0,0,0.08024691358024691,86.58641975308642,0)" xlink:href="#af"/></g><g id="w"><use transform="matrix(0.08024691358024691,0,0,0.08024691358024691,0,0)" xlink:href="#am"/><use transform="matrix(0.08024691358024691,0,0,0.08024691358024691,6.3395061728395055,0)" xlink:href="#at"/><use transform="matrix(0.08024691358024691,0,0,0.08024691358024691,22.38888888888889,0)" xlink:href="#ar"/><use transform="matrix(0.08024691358024691,0,0,0.08024691358024691,38.43827160493827,0)" xlink:href="#aq"/><use transform="matrix(0.08024691358024691,0,0,0.08024691358024691,54.48765432098766,0)" xlink:href="#af"/><use transform="matrix(0.08024691358024691,0,0,0.08024691358024691,62.51234567901235,0)" xlink:href="#ao"/></g><path d="M24-231v-30h32v30H24zM-9 49c24 4 33-6 33-30v-209h32V24c2 40-23 58-65 49V49" id="az"/><g id="x"><use transform="matrix(0.08024691358024691,0,0,0.08024691358024691,0,0)" xlink:href="#ag"/><use transform="matrix(0.08024691358024691,0,0,0.08024691358024691,16.049382716049383,0)" xlink:href="#au"/><use transform="matrix(0.08024691358024691,0,0,0.08024691358024691,32.098765432098766,0)" xlink:href="#az"/><use transform="matrix(0.08024691358024691,0,0,0.08024691358024691,38.43827160493827,0)" xlink:href="#ak"/><use transform="matrix(0.08024691358024691,0,0,0.08024691358024691,54.48765432098766,0)" xlink:href="#ay"/><use transform="matrix(0.08024691358024691,0,0,0.08024691358024691,68.9320987654321,0)" xlink:href="#af"/><use transform="matrix(0.08024691358024691,0,0,0.08024691358024691,76.9567901234568,0)" xlink:href="#am"/><use transform="matrix(0.08024691358024691,0,0,0.08024691358024691,83.2962962962963,0)" xlink:href="#an"/><use transform="matrix(0.08024691358024691,0,0,0.08024691358024691,97.74074074074075,0)" xlink:href="#ak"/></g><g id="y"><use transform="matrix(0.08024691358024691,0,0,0.08024691358024691,0,0)" xlink:href="#ah"/><use transform="matrix(0.08024691358024691,0,0,0.08024691358024691,16.049382716049383,0)" xlink:href="#at"/><use transform="matrix(0.08024691358024691,0,0,0.08024691358024691,32.098765432098766,0)" xlink:href="#aj"/></g><g id="z"><use transform="matrix(0.08024691358024691,0,0,0.08024691358024691,0,0)" xlink:href="#ay"/><use transform="matrix(0.08024691358024691,0,0,0.08024691358024691,14.444444444444443,0)" xlink:href="#ag"/><use transform="matrix(0.08024691358024691,0,0,0.08024691358024691,30.493827160493826,0)" xlink:href="#at"/><use transform="matrix(0.08024691358024691,0,0,0.08024691358024691,46.54320987654321,0)" xlink:href="#ao"/><use transform="matrix(0.08024691358024691,0,0,0.08024691358024691,60.98765432098765,0)" xlink:href="#af"/><use transform="matrix(0.08024691358024691,0,0,0.08024691358024691,69.01234567901234,0)" xlink:href="#al"/><use transform="matrix(0.08024691358024691,0,0,0.08024691358024691,78.56172839506172,0)" xlink:href="#ah"/><use transform="matrix(0.08024691358024691,0,0,0.08024691358024691,94.6111111111111,0)" xlink:href="#am"/><use transform="matrix(0.08024691358024691,0,0,0.08024691358024691,100.9506172839506,0)" xlink:href="#at"/><use transform="matrix(0.08024691358024691,0,0,0.08024691358024691,117,0)" xlink:href="#af"/><use transform="matrix(0.08024691358024691,0,0,0.08024691358024691,125.02469135802468,0)" xlink:href="#ao"/></g><g id="A"><use transform="matrix(0.08024691358024691,0,0,0.08024691358024691,0,0)" xlink:href="#ag"/><use transform="matrix(0.08024691358024691,0,0,0.08024691358024691,16.049382716049383,0)" xlink:href="#aq"/><use transform="matrix(0.08024691358024691,0,0,0.08024691358024691,32.098765432098766,0)" xlink:href="#af"/><use transform="matrix(0.08024691358024691,0,0,0.08024691358024691,40.123456790123456,0)" xlink:href="#ar"/><use transform="matrix(0.08024691358024691,0,0,0.08024691358024691,56.172839506172835,0)" xlink:href="#aq"/><use transform="matrix(0.08024691358024691,0,0,0.08024691358024691,72.22222222222221,0)" xlink:href="#af"/><use transform="matrix(0.08024691358024691,0,0,0.08024691358024691,80.24691358024691,0)" xlink:href="#ao"/><use transform="matrix(0.08024691358024691,0,0,0.08024691358024691,94.69135802469135,0)" xlink:href="#ax"/></g></defs></g></svg>