<svg xmlns="http://www.w3.org/2000/svg" xmlns:xlink="http://www.w3.org/1999/xlink" xmlns:lucid="lucid" width="308.07" height="489.42"><g transform="translate(-20.0000000000001 -39.999999999999986)" lucid:page-tab-id="0_0"><path d="M255 179.72c0-3.3 2.68-6 6-6h41.07c3.3 0 6 2.7 6 6v24.16c0 3.3-2.7 6-6 6H261c-3.32 0-6-2.7-6-6z" stroke="#ffeca9" stroke-width="3" fill="#ffeca9"/><use xlink:href="#a" transform="matrix(1,0,0,1,259.99394655834845,178.7246976083443) translate(3.997070312500007 19.371093749999993)"/><path d="M77.42 96.1c0 10.32-8.38 18.7-18.7 18.7-10.34 0-18.72-8.38-18.72-18.7 0-10.35 8.38-18.72 18.7-18.72 10.34 0 18.72 8.37 18.72 18.7z" stroke="#c7e8ac" stroke-width="3" fill="#c7e8ac"/><use xlink:href="#b" transform="matrix(1,0,0,1,45.0000000000001,82.3752031490576) translate(7.999023437500002 19.496093749999993)"/><path d="M265.62 94.9c0 19.25-15.62 34.87-34.9 34.87-19.26 0-34.88-15.62-34.88-34.88 0-19.28 15.62-34.9 34.9-34.9C250 60 265.6 75.62 265.6 94.9z" stroke="#c7e8ac" stroke-width="3" fill="#c7e8ac"/><use xlink:href="#c" transform="matrix(1,0,0,1,200.84484322429682,64.99999999999999) translate(-0.004882812499992895 35.99609375)"/><path d="M174.3 347.48c-11.34 0-20.54-9.9-20.54-22.1 0-12.22 9.2-22.13 20.54-22.13s20.53 9.9 20.53 22.12c0 12.2-9.2 22.1-20.53 22.1z" stroke="#ffbbb1" stroke-width="3" fill="#ffbbb1"/><path d="M148.77 179.72c0-3.3 2.7-6 6-6h41.08c3.3 0 6 2.7 6 6v24.16c0 3.3-2.7 6-6 6h-41.08c-3.3 0-6-2.7-6-6z" stroke="#ffeca9" stroke-width="3" fill="#ffeca9"/><use xlink:href="#d" transform="matrix(1,0,0,1,153.77275867243597,178.7246976083443) translate(3.997070312500007 19.371093749999993)"/><path d="M155.17 400.4c0-3.32 2.7-6 6-6H187c3.3 0 6 2.68 6 6v23.2c0 3.3-2.7 6-6 6h-25.83c-3.3 0-6-2.7-6-6z" stroke="#ffeca9" stroke-width="3" fill="#ffeca9"/><use xlink:href="#e" transform="matrix(1,0,0,1,160.17359057386054,399.3937588153257) translate(7.999023437500002 19.246093749999993)"/><path d="M234.5 131.72l33 28.43" stroke="#000" stroke-width="2" fill="none"/><path d="M235.2 130.98l-1.32 1.52-1.54-1.33 2.84-.2"/><path d="M279.08 170.1l-13.84-5.8 6.06-7z" stroke="#000" stroke-width="2"/><path d="M174.3 212.38v70.86" stroke="#000" stroke-width="2" fill="none"/><path d="M175.3 212.4h-2v-1.02h2"/><path d="M174.3 298.5l-4.64-14.26h9.27z" stroke="#000" stroke-width="2"/><path d="M279.76 345.56c-12 0-21.75-9.9-21.75-22.1 0-12.23 9.75-22.13 21.76-22.13 12.02 0 21.76 9.9 21.76 22.12 0 12.2-9.74 22.1-21.76 22.1z" stroke="#ffbbb1" stroke-width="3" fill="#ffbbb1"/><path d="M281.53 212.38v69.14" stroke="#000" stroke-width="2" fill="none"/><path d="M282.53 212.4h-2v-1.02h2"/><path d="M281.53 296.78l-4.64-14.26h9.26z" stroke="#000" stroke-width="2"/><path d="M229.94 131.9l-36.92 28.92" stroke="#000" stroke-width="2" fill="none"/><path d="M230.54 132.7l-1.2-1.52 1.4.1 1.77-.12"/><path d="M181 170.23l8.37-12.45 5.72 7.3z" stroke="#000" stroke-width="2"/><path d="M174.24 350l-.06 24.4" stroke="#000" stroke-width="2" fill="none"/><path d="M174.3 349l.94-.1V350h-2v-1.15"/><path d="M174.14 389.66l-4.6-14.28 9.27.02z" stroke="#000" stroke-width="2"/><path d="M193 490.5c0 10.46-8.47 18.92-18.92 18.92-10.44 0-18.9-8.46-18.9-18.9 0-10.45 8.46-18.9 18.9-18.9 10.45 0 18.9 8.45 18.9 18.9z" stroke="#ffbbb1" stroke-width="3" fill="#ffbbb1"/><use xlink:href="#f" transform="matrix(1,0,0,1,160.1735905738605,476.60559473135527) translate(7.999023437500002 19.496093749999993)"/><path d="M174.08 432.1v19.5" stroke="#000" stroke-width="2" fill="none"/><path d="M175.08 432.12h-2v-1.02h2"/><path d="M174.08 466.86l-4.63-14.27h9.27z" stroke="#000" stroke-width="2"/><path d="M59.1 117.23l107.86 258.6" stroke="#000" stroke-width="2" fill="none"/><path d="M58.7 116.3l1.04-.13.3.7-1.86.77-.62-1.48"/><path d="M172.84 389.9l-9.77-11.37 8.55-3.57z" stroke="#000" stroke-width="2"/><path d="M261.33 399.6c0-3.3 2.7-6 6-6h25.82c3.32 0 6 2.7 6 6v24.78c0 3.32-2.68 6-6 6h-25.82c-3.3 0-6-2.68-6-6z" stroke="#ffeca9" stroke-width="3" fill="#ffeca9"/><use xlink:href="#e" transform="matrix(1,0,0,1,266.33457299533984,398.6069121402343) translate(7.999023437500002 19.371093749999993)"/><path d="M59.34 117.1l209.32 260.58" stroke="#000" stroke-width="2" fill="none"/><path d="M58.7 116.3l1.17-.14.26.32-1.56 1.25-1.3-1.6"/><path d="M278.22 389.58l-12.55-8.22 7.23-5.8z" stroke="#000" stroke-width="2"/><path d="M279.9 348.06l.14 25.55" stroke="#000" stroke-width="2" fill="none"/><path d="M280.9 348.08h-2V347l.86.1 1.13-.13"/><path d="M280.12 388.87l-4.7-14.24 9.26-.05z" stroke="#000" stroke-width="2"/><path d="M299.15 490.5c0 10.46-8.46 18.92-18.9 18.92-10.45 0-18.92-8.46-18.92-18.9 0-10.45 8.47-18.9 18.9-18.9 10.46 0 18.92 8.45 18.92 18.9z" stroke="#ffbbb1" stroke-width="3" fill="#ffbbb1"/><use xlink:href="#g" transform="matrix(1,0,0,1,266.33457299533796,476.60559473135527) translate(7.999023437500002 19.496093749999993)"/><path d="M280.24 432.88v18.7" stroke="#000" stroke-width="2" fill="none"/><path d="M281.24 432.9h-2v-1.02h2"/><path d="M280.24 466.86l-4.63-14.27h9.28z" stroke="#000" stroke-width="2"/><defs><path d="M873-819c-18-114-119-146-250-146-163 0-245 50-245 151 0 151 170 148 294 185 182 54 388 94 388 320 0 240-189 325-439 329-245 4-410-69-454-268l159-31c24 133 136 168 295 165 144-2 270-31 270-171 0-164-195-160-331-202-167-52-350-87-350-299 0-218 173-315 413-313 220 2 373 77 412 260" id="h"/><path d="M745-142h380V0H143v-142h422v-798H246v-142h499v940zM545-1292v-192h200v192H545" id="i"/><path d="M706-1102c241 0 344 136 343 381V0H868v-695c1-168-57-273-220-268-190 6-283 138-283 336V0H185c-3-360 6-732-6-1082h170c4 54 7 126 8 185h3c63-121 164-204 346-205" id="j"/><g id="a"><use transform="matrix(0.009765624999999997,0,0,0.009765624999999997,0,0)" xlink:href="#h"/><use transform="matrix(0.009765624999999997,0,0,0.009765624999999997,12.001953124999996,0)" xlink:href="#i"/><use transform="matrix(0.009765624999999997,0,0,0.009765624999999997,24.003906249999993,0)" xlink:href="#j"/></g><path d="M839-1102c70 0 148 7 206 17v167c-112-18-268-36-363 15-129 69-208 203-208 395V0H294c-10-367 32-789-52-1082h171c21 75 41 161 48 250h5c67-152 152-270 373-270" id="k"/><use transform="matrix(0.009765624999999997,0,0,0.009765624999999997,0,0)" xlink:href="#k" id="b"/><path d="M682 16c-209 0-323-80-324-285v-671H190v-142h170l58-282h120v282h432v142H538v652c2 114 60 155 182 155 106 0 209-16 297-34v137C921-4 806 16 682 16" id="l"/><path d="M648-963c-190 6-283 138-283 336V0H185v-1484h181c-2 197 6 404-9 587h3c62-120 159-205 339-205 242 0 351 135 350 381V0H868v-695c1-168-57-273-220-268" id="m"/><path d="M617-1102c355 0 481 238 477 599H322c5 222 84 388 301 388 144 0 244-59 284-166l158 45C1002-72 854 20 623 20c-342 0-490-220-490-568 0-346 151-554 484-554zm291 461c-18-192-90-328-289-328-194 0-287 128-295 328h584" id="n"/><path d="M1000-272c3 95 12 159 101 161 21 0 41-3 59-7V-6c-44 10-86 16-139 16-141 2-191-84-197-217h-6C748-76 648 20 446 20c-207 0-318-120-318-322 0-266 194-348 454-354l236-4c12-191-40-305-222-305-140 0-220 47-232 172l-188-17c33-204 181-292 423-292 255 0 401 118 401 364v466zm-683-27c0 109 63 184 175 182 166-3 259-96 306-217 24-65 20-120 20-200-232 7-501-28-501 235" id="o"/><g id="c"><use transform="matrix(0.009765624999999997,0,0,0.009765624999999997,0,0)" xlink:href="#l"/><use transform="matrix(0.009765624999999997,0,0,0.009765624999999997,12.001953124999996,0)" xlink:href="#m"/><use transform="matrix(0.009765624999999997,0,0,0.009765624999999997,24.003906249999993,0)" xlink:href="#n"/><use transform="matrix(0.009765624999999997,0,0,0.009765624999999997,36.005859374999986,0)" xlink:href="#l"/><use transform="matrix(0.009765624999999997,0,0,0.009765624999999997,48.007812499999986,0)" xlink:href="#o"/></g><path d="M631 20c-350 0-501-215-501-562 0-355 162-560 502-560 250 0 399 118 446 323l-192 14c-23-124-109-196-262-196-242 0-305 171-305 415 1 245 61 427 304 427 151 0 248-77 267-215l190 12C1039-107 883 20 631 20" id="p"/><path d="M615-1102c343 0 484 203 482 560-1 347-147 562-488 562-336 0-475-219-479-562-4-349 156-560 485-560zm-8 989c240 0 301-180 301-429 0-245-55-427-290-427-236 0-299 181-299 427 0 243 61 429 288 429" id="q"/><g id="d"><use transform="matrix(0.009765624999999997,0,0,0.009765624999999997,0,0)" xlink:href="#p"/><use transform="matrix(0.009765624999999997,0,0,0.009765624999999997,12.001953124999996,0)" xlink:href="#q"/><use transform="matrix(0.009765624999999997,0,0,0.009765624999999997,24.003906249999993,0)" xlink:href="#h"/></g><path d="M671-1188l264-103 45 132-282 73 185 250-119 72-150-258-156 256-119-72 189-248-280-73 45-134 267 107-12-297h136" id="r"/><use transform="matrix(0.009765624999999997,0,0,0.009765624999999997,0,0)" xlink:href="#r" id="e"/><path d="M932 0L611-444 288 0H94l415-556-397-526h199l300 421 298-421h201L713-558 1133 0H932" id="s"/><use transform="matrix(0.009765624999999997,0,0,0.009765624999999997,0,0)" xlink:href="#s" id="f"/><path d="M168 279c222 39 310-114 368-290L66-1082h192c120 299 249 590 362 896 115-301 235-597 351-896h190L705 0c-65 164-130 320-275 396-67 36-177 35-262 18V279" id="t"/><use transform="matrix(0.009765624999999997,0,0,0.009765624999999997,0,0)" xlink:href="#t" id="g"/></defs></g></svg>